M48
;GenerationSoftware,Autodesk,EAGLE,9.6.2*%
;CreationDate,2021-04-30T08:53:16Z*%
FMAT,2
ICI,OFF
METRIC,TZ,000.000
T9C0.400
T8C0.450
T7C0.500
T6C0.600
T5C0.700
T4C0.900
T3C1.016
T2C1.092
T1C2.290
%
G90
M71
T1
X31260Y37139
X8910Y23659
X8910Y50629
T2
X23368Y4750
X33376Y7239
X33376Y2261
X19380Y7239
X19380Y2261
X29362Y4750
X26365Y4750
T3
X6172Y112268
X3632Y109728
X37389Y143485
X8712Y109728
X6172Y109728
X37389Y140945
X37389Y138405
X37389Y133325
X37389Y146025
X8712Y112268
X2286Y127432
X2286Y124892
X2286Y122352
X2286Y119812
X37389Y135865
X26350Y12059
X13650Y12059
X3632Y112268
T4
X5334Y75022
X5334Y70622
T5
X20456Y130362
X18660Y130362
X18660Y128566
X20456Y128566
X8890Y116891
X23368Y35052
X12192Y105842
T6
X15748Y128566
X33655Y128651
X19812Y104851
X21336Y104851
X30480Y108458
X10465Y135890
X12192Y135890
X3810Y133108
X27940Y121932
X32156Y124765
X24384Y117602
X10643Y123444
T7
X8103Y92354
X21463Y91567
X36170Y93015
X36322Y114808
X26326Y56642
X24638Y63500
X20066Y52832
X38213Y121920
X25146Y124460
X32385Y137287
X30480Y144399
X25019Y108458
X22752Y98425
X19812Y99568
X-102Y124892
X23876Y125222
X12446Y123444
X32004Y90932
X6604Y144219
X23114Y61976
X12192Y70104
X24638Y61976
X16510Y70104
X29718Y138684
X40513Y131064
X16688Y75768
X34036Y87376
X34036Y45974
X21082Y9652
X24638Y12116
X30988Y44704
X30988Y67310
X26964Y67270
X32944Y89154
X30226Y41531
X14224Y123444
X18542Y124206
X28956Y101778
X33870Y118542
X28956Y20752
X21844Y61976
X33274Y26340
X29159Y11608
X3556Y7727
X12446Y117754
X30048Y121932
X8890Y122936
X15196Y73812
X26964Y71770
X26964Y75768
X20574Y61976
X17450Y45415
X19812Y106426
X13882Y112268
X15582Y102616
X14224Y116891
X30480Y109740
T8
X7874Y98425
X7874Y99568
X7874Y101854
X7874Y97282
X14986Y56642
X15787Y92964
X13716Y92964
X34036Y114808
X25629Y16739
X32918Y113894
X30480Y141554
X13716Y100711
X39624Y131851
X7874Y100711
X7874Y96139
X22752Y96139
X7874Y94996
X25400Y94996
X25400Y93904
X10116Y92354
X17487Y92964
X21463Y92964
X32004Y112674
X21336Y98425
T9
X-1016Y105969
X4064Y105969
X10922Y9652
X25629Y13716
M30