G04 EAGLE Gerber RS-274X export*
G75*
%MOMM*%
%FSLAX34Y34*%
%LPD*%
%INBottom Copper*%
%IPPOS*%
%AMOC8*
5,1,8,0,0,1.08239X$1,22.5*%
G01*
%ADD10C,1.524000*%
%ADD11C,1.879600*%
%ADD12R,2.500000X0.500000*%
%ADD13R,2.500000X2.000000*%
%ADD14R,1.208000X1.208000*%
%ADD15C,1.208000*%
%ADD16C,1.638300*%
%ADD17C,1.016000*%
%ADD18C,0.906400*%
%ADD19C,1.106400*%
%ADD20C,1.006400*%
%ADD21C,0.856400*%
%ADD22C,0.508000*%
%ADD23C,0.406400*%
%ADD24C,0.609600*%
%ADD25C,0.304800*%
%ADD26C,0.806400*%

G36*
X345566Y10175D02*
X345566Y10175D01*
X345657Y10183D01*
X345687Y10195D01*
X345719Y10200D01*
X345799Y10243D01*
X345883Y10279D01*
X345915Y10305D01*
X345936Y10316D01*
X345958Y10339D01*
X346014Y10384D01*
X389616Y53986D01*
X389669Y54060D01*
X389729Y54129D01*
X389741Y54159D01*
X389760Y54186D01*
X389787Y54272D01*
X389821Y54357D01*
X389825Y54398D01*
X389832Y54421D01*
X389831Y54453D01*
X389839Y54524D01*
X389839Y1002021D01*
X391386Y1005756D01*
X439616Y1053986D01*
X439669Y1054060D01*
X439729Y1054129D01*
X439741Y1054159D01*
X439760Y1054186D01*
X439787Y1054272D01*
X439821Y1054357D01*
X439825Y1054398D01*
X439832Y1054421D01*
X439831Y1054453D01*
X439839Y1054524D01*
X439839Y1445476D01*
X439825Y1445566D01*
X439817Y1445657D01*
X439805Y1445687D01*
X439800Y1445719D01*
X439757Y1445799D01*
X439721Y1445883D01*
X439695Y1445915D01*
X439684Y1445936D01*
X439661Y1445958D01*
X439616Y1446014D01*
X396014Y1489616D01*
X395940Y1489669D01*
X395871Y1489729D01*
X395841Y1489741D01*
X395814Y1489760D01*
X395728Y1489787D01*
X395643Y1489821D01*
X395602Y1489825D01*
X395579Y1489832D01*
X395547Y1489831D01*
X395476Y1489839D01*
X4524Y1489839D01*
X4434Y1489825D01*
X4343Y1489817D01*
X4313Y1489805D01*
X4281Y1489800D01*
X4201Y1489757D01*
X4117Y1489721D01*
X4085Y1489695D01*
X4064Y1489684D01*
X4042Y1489661D01*
X3986Y1489616D01*
X-39616Y1446014D01*
X-39669Y1445940D01*
X-39729Y1445871D01*
X-39741Y1445841D01*
X-39760Y1445814D01*
X-39787Y1445728D01*
X-39821Y1445643D01*
X-39825Y1445602D01*
X-39832Y1445579D01*
X-39831Y1445547D01*
X-39839Y1445476D01*
X-39839Y1054524D01*
X-39825Y1054434D01*
X-39817Y1054343D01*
X-39805Y1054313D01*
X-39800Y1054281D01*
X-39757Y1054201D01*
X-39721Y1054117D01*
X-39695Y1054085D01*
X-39684Y1054064D01*
X-39661Y1054042D01*
X-39616Y1053986D01*
X8614Y1005756D01*
X10161Y1002021D01*
X10161Y54524D01*
X10175Y54434D01*
X10183Y54343D01*
X10195Y54313D01*
X10200Y54281D01*
X10243Y54201D01*
X10279Y54117D01*
X10305Y54085D01*
X10316Y54064D01*
X10339Y54042D01*
X10384Y53986D01*
X53986Y10384D01*
X54060Y10331D01*
X54129Y10271D01*
X54159Y10259D01*
X54186Y10240D01*
X54272Y10213D01*
X54357Y10179D01*
X54398Y10175D01*
X54421Y10168D01*
X54453Y10169D01*
X54524Y10161D01*
X345476Y10161D01*
X345566Y10175D01*
G37*
%LPC*%
G36*
X165673Y751625D02*
X165673Y751625D01*
X163447Y752547D01*
X161743Y754251D01*
X160821Y756477D01*
X160821Y758951D01*
X160840Y759026D01*
X160840Y759032D01*
X160841Y759038D01*
X160830Y759155D01*
X160821Y759271D01*
X160819Y759277D01*
X160818Y759283D01*
X160770Y759392D01*
X160725Y759498D01*
X160720Y759503D01*
X160718Y759508D01*
X160705Y759522D01*
X160620Y759629D01*
X118871Y801377D01*
X118871Y915663D01*
X131130Y927922D01*
X131183Y927996D01*
X131243Y928065D01*
X131255Y928095D01*
X131274Y928122D01*
X131301Y928209D01*
X131335Y928293D01*
X131339Y928334D01*
X131346Y928357D01*
X131345Y928389D01*
X131353Y928460D01*
X131353Y930795D01*
X132237Y932929D01*
X133909Y934601D01*
X133948Y934622D01*
X133966Y934640D01*
X133988Y934654D01*
X134050Y934729D01*
X134117Y934800D01*
X134128Y934823D01*
X134145Y934843D01*
X134180Y934934D01*
X134221Y935023D01*
X134224Y935049D01*
X134233Y935073D01*
X134237Y935171D01*
X134248Y935267D01*
X134242Y935293D01*
X134244Y935319D01*
X134216Y935413D01*
X134196Y935508D01*
X134182Y935530D01*
X134175Y935555D01*
X134120Y935635D01*
X134070Y935719D01*
X134050Y935736D01*
X134035Y935757D01*
X133957Y935815D01*
X133883Y935879D01*
X133859Y935889D01*
X133838Y935904D01*
X133745Y935934D01*
X133654Y935971D01*
X133622Y935974D01*
X133604Y935980D01*
X133571Y935980D01*
X133488Y935989D01*
X118169Y935989D01*
X118079Y935974D01*
X117987Y935967D01*
X117958Y935955D01*
X117927Y935950D01*
X117845Y935906D01*
X117761Y935870D01*
X117729Y935845D01*
X117709Y935834D01*
X117687Y935811D01*
X117630Y935765D01*
X107192Y925279D01*
X107140Y925206D01*
X107081Y925137D01*
X107069Y925106D01*
X107049Y925079D01*
X107023Y924992D01*
X106989Y924909D01*
X106985Y924867D01*
X106978Y924844D01*
X106978Y924812D01*
X106971Y924742D01*
X106971Y922389D01*
X106087Y920255D01*
X104453Y918621D01*
X102319Y917737D01*
X100009Y917737D01*
X97875Y918621D01*
X96241Y920255D01*
X95357Y922389D01*
X95357Y924699D01*
X96241Y926833D01*
X97875Y928467D01*
X100009Y929351D01*
X102326Y929351D01*
X102417Y929366D01*
X102509Y929373D01*
X102538Y929385D01*
X102569Y929390D01*
X102650Y929434D01*
X102735Y929470D01*
X102766Y929495D01*
X102786Y929506D01*
X102808Y929529D01*
X102865Y929575D01*
X113316Y940074D01*
X113329Y940092D01*
X114433Y941197D01*
X114434Y941198D01*
X115319Y942087D01*
X116584Y942087D01*
X116585Y942087D01*
X116586Y942087D01*
X118127Y942090D01*
X118159Y942087D01*
X248521Y942087D01*
X248612Y942101D01*
X248702Y942109D01*
X248732Y942121D01*
X248764Y942126D01*
X248845Y942169D01*
X248929Y942205D01*
X248961Y942231D01*
X248982Y942242D01*
X249004Y942265D01*
X249060Y942310D01*
X250711Y943961D01*
X250722Y943977D01*
X250738Y943989D01*
X250794Y944077D01*
X250854Y944160D01*
X250860Y944179D01*
X250871Y944196D01*
X250896Y944297D01*
X250927Y944396D01*
X250926Y944415D01*
X250931Y944435D01*
X250923Y944538D01*
X250920Y944641D01*
X250913Y944660D01*
X250912Y944680D01*
X250871Y944775D01*
X250836Y944872D01*
X250823Y944888D01*
X250816Y944906D01*
X250711Y945037D01*
X249060Y946688D01*
X248986Y946741D01*
X248916Y946801D01*
X248886Y946813D01*
X248860Y946832D01*
X248773Y946859D01*
X248688Y946893D01*
X248647Y946897D01*
X248625Y946904D01*
X248593Y946903D01*
X248521Y946911D01*
X84219Y946911D01*
X84128Y946897D01*
X84038Y946889D01*
X84008Y946877D01*
X83976Y946872D01*
X83895Y946829D01*
X83811Y946793D01*
X83779Y946767D01*
X83758Y946756D01*
X83736Y946733D01*
X83680Y946688D01*
X82029Y945037D01*
X79895Y944153D01*
X77585Y944153D01*
X75451Y945037D01*
X73817Y946671D01*
X72933Y948805D01*
X72933Y951115D01*
X73817Y953249D01*
X75451Y954883D01*
X75666Y954972D01*
X75727Y955010D01*
X75792Y955039D01*
X75830Y955074D01*
X75875Y955101D01*
X75920Y955157D01*
X75973Y955205D01*
X75998Y955251D01*
X76031Y955291D01*
X76057Y955358D01*
X76092Y955421D01*
X76101Y955472D01*
X76120Y955520D01*
X76123Y955592D01*
X76135Y955663D01*
X76128Y955714D01*
X76130Y955766D01*
X76110Y955835D01*
X76100Y955906D01*
X76076Y955952D01*
X76062Y956002D01*
X76021Y956061D01*
X75988Y956125D01*
X75951Y956162D01*
X75921Y956204D01*
X75864Y956247D01*
X75812Y956297D01*
X75750Y956332D01*
X75724Y956351D01*
X75702Y956358D01*
X75666Y956378D01*
X75451Y956467D01*
X73817Y958101D01*
X72933Y960235D01*
X72933Y962545D01*
X73817Y964679D01*
X75451Y966313D01*
X75666Y966402D01*
X75727Y966440D01*
X75792Y966469D01*
X75830Y966504D01*
X75875Y966531D01*
X75920Y966587D01*
X75973Y966635D01*
X75998Y966681D01*
X76031Y966721D01*
X76057Y966788D01*
X76092Y966851D01*
X76101Y966902D01*
X76120Y966950D01*
X76123Y967022D01*
X76135Y967093D01*
X76128Y967144D01*
X76130Y967196D01*
X76110Y967265D01*
X76100Y967336D01*
X76076Y967382D01*
X76062Y967432D01*
X76021Y967491D01*
X75988Y967555D01*
X75951Y967592D01*
X75921Y967634D01*
X75864Y967677D01*
X75812Y967727D01*
X75750Y967762D01*
X75724Y967781D01*
X75702Y967788D01*
X75666Y967808D01*
X75451Y967897D01*
X73817Y969531D01*
X72933Y971665D01*
X72933Y973975D01*
X73817Y976109D01*
X75451Y977743D01*
X75666Y977832D01*
X75727Y977869D01*
X75792Y977899D01*
X75830Y977934D01*
X75875Y977961D01*
X75920Y978017D01*
X75973Y978065D01*
X75998Y978111D01*
X76031Y978151D01*
X76057Y978218D01*
X76092Y978281D01*
X76101Y978332D01*
X76120Y978380D01*
X76123Y978452D01*
X76135Y978523D01*
X76128Y978574D01*
X76130Y978626D01*
X76110Y978695D01*
X76100Y978766D01*
X76076Y978812D01*
X76062Y978862D01*
X76021Y978921D01*
X75988Y978985D01*
X75951Y979022D01*
X75921Y979064D01*
X75864Y979107D01*
X75813Y979157D01*
X75750Y979192D01*
X75724Y979211D01*
X75702Y979218D01*
X75666Y979238D01*
X75451Y979327D01*
X73817Y980961D01*
X72933Y983095D01*
X72933Y985405D01*
X73817Y987539D01*
X75451Y989173D01*
X75666Y989262D01*
X75727Y989300D01*
X75792Y989329D01*
X75830Y989364D01*
X75875Y989391D01*
X75920Y989447D01*
X75973Y989495D01*
X75998Y989541D01*
X76031Y989581D01*
X76057Y989648D01*
X76092Y989711D01*
X76101Y989762D01*
X76120Y989810D01*
X76123Y989882D01*
X76135Y989953D01*
X76128Y990004D01*
X76130Y990056D01*
X76110Y990125D01*
X76100Y990196D01*
X76076Y990242D01*
X76062Y990292D01*
X76021Y990351D01*
X75988Y990415D01*
X75951Y990452D01*
X75921Y990494D01*
X75864Y990537D01*
X75812Y990587D01*
X75750Y990622D01*
X75724Y990641D01*
X75702Y990648D01*
X75666Y990668D01*
X75451Y990757D01*
X73817Y992391D01*
X72933Y994525D01*
X72933Y996835D01*
X73817Y998969D01*
X75451Y1000603D01*
X75666Y1000692D01*
X75727Y1000730D01*
X75792Y1000759D01*
X75830Y1000794D01*
X75875Y1000821D01*
X75920Y1000877D01*
X75973Y1000925D01*
X75998Y1000971D01*
X76031Y1001011D01*
X76057Y1001078D01*
X76092Y1001141D01*
X76101Y1001192D01*
X76120Y1001240D01*
X76123Y1001312D01*
X76135Y1001383D01*
X76128Y1001434D01*
X76130Y1001486D01*
X76110Y1001555D01*
X76100Y1001626D01*
X76076Y1001672D01*
X76062Y1001722D01*
X76021Y1001781D01*
X75988Y1001845D01*
X75951Y1001882D01*
X75921Y1001924D01*
X75864Y1001967D01*
X75812Y1002017D01*
X75750Y1002052D01*
X75724Y1002071D01*
X75702Y1002078D01*
X75666Y1002098D01*
X75451Y1002187D01*
X73817Y1003821D01*
X72933Y1005955D01*
X72933Y1008265D01*
X73817Y1010399D01*
X75451Y1012033D01*
X75666Y1012122D01*
X75727Y1012159D01*
X75792Y1012189D01*
X75830Y1012224D01*
X75875Y1012251D01*
X75920Y1012307D01*
X75973Y1012355D01*
X75998Y1012401D01*
X76031Y1012441D01*
X76057Y1012508D01*
X76092Y1012571D01*
X76101Y1012622D01*
X76120Y1012670D01*
X76123Y1012742D01*
X76135Y1012813D01*
X76128Y1012864D01*
X76130Y1012916D01*
X76110Y1012985D01*
X76100Y1013056D01*
X76076Y1013102D01*
X76062Y1013152D01*
X76021Y1013211D01*
X75988Y1013275D01*
X75951Y1013312D01*
X75921Y1013354D01*
X75864Y1013397D01*
X75813Y1013447D01*
X75750Y1013482D01*
X75724Y1013501D01*
X75702Y1013508D01*
X75666Y1013528D01*
X75451Y1013617D01*
X73817Y1015251D01*
X72933Y1017385D01*
X72933Y1019695D01*
X73817Y1021829D01*
X75451Y1023463D01*
X77585Y1024347D01*
X79895Y1024347D01*
X82029Y1023463D01*
X83680Y1021812D01*
X83754Y1021759D01*
X83824Y1021699D01*
X83854Y1021687D01*
X83880Y1021668D01*
X83967Y1021641D01*
X84052Y1021607D01*
X84093Y1021603D01*
X84115Y1021596D01*
X84147Y1021597D01*
X84219Y1021589D01*
X212845Y1021589D01*
X228629Y1005804D01*
X228657Y1005785D01*
X229743Y1004691D01*
X229744Y1004690D01*
X229745Y1004689D01*
X230637Y1003796D01*
X230633Y1002534D01*
X230633Y1002533D01*
X230633Y1002531D01*
X230633Y1001005D01*
X230627Y1000957D01*
X230589Y990046D01*
X230608Y989929D01*
X230625Y989812D01*
X230627Y989808D01*
X230628Y989803D01*
X230683Y989698D01*
X230737Y989593D01*
X230740Y989589D01*
X230742Y989585D01*
X230828Y989504D01*
X230912Y989421D01*
X230917Y989418D01*
X230920Y989415D01*
X230921Y989415D01*
X232655Y987681D01*
X233577Y985455D01*
X233577Y983045D01*
X232655Y980819D01*
X230951Y979115D01*
X228725Y978193D01*
X226240Y978193D01*
X226188Y978206D01*
X226183Y978206D01*
X226179Y978207D01*
X226062Y978196D01*
X225943Y978186D01*
X225938Y978184D01*
X225934Y978184D01*
X225826Y978136D01*
X225717Y978089D01*
X225712Y978085D01*
X225709Y978084D01*
X225698Y978074D01*
X225586Y977984D01*
X219440Y971787D01*
X219417Y971755D01*
X218332Y970670D01*
X218331Y970669D01*
X218330Y970668D01*
X217441Y969771D01*
X216179Y969771D01*
X216177Y969771D01*
X216175Y969771D01*
X214657Y969765D01*
X214601Y969771D01*
X84219Y969771D01*
X84128Y969757D01*
X84038Y969749D01*
X84008Y969737D01*
X83976Y969732D01*
X83895Y969689D01*
X83811Y969653D01*
X83779Y969627D01*
X83758Y969616D01*
X83736Y969593D01*
X83680Y969548D01*
X82029Y967897D01*
X81814Y967808D01*
X81753Y967771D01*
X81688Y967741D01*
X81650Y967706D01*
X81605Y967679D01*
X81560Y967623D01*
X81507Y967575D01*
X81482Y967529D01*
X81449Y967489D01*
X81423Y967422D01*
X81388Y967359D01*
X81379Y967308D01*
X81360Y967260D01*
X81357Y967188D01*
X81345Y967117D01*
X81352Y967066D01*
X81350Y967014D01*
X81370Y966945D01*
X81380Y966874D01*
X81404Y966828D01*
X81418Y966778D01*
X81459Y966719D01*
X81492Y966655D01*
X81529Y966618D01*
X81559Y966576D01*
X81616Y966533D01*
X81667Y966483D01*
X81730Y966448D01*
X81756Y966429D01*
X81778Y966422D01*
X81814Y966402D01*
X82029Y966313D01*
X83680Y964662D01*
X83754Y964609D01*
X83824Y964549D01*
X83854Y964537D01*
X83880Y964518D01*
X83967Y964491D01*
X84052Y964457D01*
X84093Y964453D01*
X84115Y964446D01*
X84147Y964447D01*
X84219Y964439D01*
X222041Y964439D01*
X222132Y964453D01*
X222222Y964461D01*
X222252Y964473D01*
X222284Y964478D01*
X222365Y964521D01*
X222449Y964557D01*
X222481Y964583D01*
X222502Y964594D01*
X222524Y964617D01*
X222580Y964662D01*
X224231Y966313D01*
X226365Y967197D01*
X228675Y967197D01*
X230809Y966313D01*
X232443Y964679D01*
X233327Y962545D01*
X233327Y960235D01*
X232443Y958101D01*
X230809Y956467D01*
X228675Y955583D01*
X226365Y955583D01*
X224231Y956467D01*
X222580Y958118D01*
X222506Y958171D01*
X222436Y958231D01*
X222406Y958243D01*
X222380Y958262D01*
X222293Y958289D01*
X222208Y958323D01*
X222167Y958327D01*
X222145Y958334D01*
X222113Y958333D01*
X222041Y958341D01*
X84219Y958341D01*
X84128Y958327D01*
X84038Y958319D01*
X84008Y958307D01*
X83976Y958302D01*
X83895Y958259D01*
X83811Y958223D01*
X83779Y958197D01*
X83758Y958186D01*
X83736Y958163D01*
X83680Y958118D01*
X82029Y956467D01*
X81814Y956378D01*
X81753Y956341D01*
X81688Y956311D01*
X81650Y956276D01*
X81605Y956249D01*
X81560Y956193D01*
X81507Y956145D01*
X81482Y956099D01*
X81449Y956059D01*
X81423Y955992D01*
X81388Y955929D01*
X81379Y955878D01*
X81360Y955830D01*
X81357Y955758D01*
X81345Y955687D01*
X81352Y955636D01*
X81350Y955584D01*
X81370Y955515D01*
X81380Y955444D01*
X81404Y955398D01*
X81418Y955348D01*
X81459Y955289D01*
X81492Y955225D01*
X81529Y955188D01*
X81559Y955146D01*
X81616Y955103D01*
X81667Y955053D01*
X81730Y955018D01*
X81756Y954999D01*
X81778Y954992D01*
X81814Y954972D01*
X82029Y954883D01*
X83680Y953232D01*
X83754Y953179D01*
X83824Y953119D01*
X83854Y953107D01*
X83880Y953088D01*
X83967Y953061D01*
X84052Y953027D01*
X84093Y953023D01*
X84115Y953016D01*
X84147Y953017D01*
X84219Y953009D01*
X248521Y953009D01*
X248612Y953023D01*
X248702Y953031D01*
X248732Y953043D01*
X248764Y953048D01*
X248845Y953091D01*
X248929Y953127D01*
X248961Y953153D01*
X248982Y953164D01*
X249004Y953187D01*
X249060Y953232D01*
X250711Y954883D01*
X252845Y955767D01*
X255155Y955767D01*
X257289Y954883D01*
X258923Y953249D01*
X259807Y951115D01*
X259807Y948805D01*
X258923Y946671D01*
X257289Y945037D01*
X257278Y945021D01*
X257262Y945009D01*
X257206Y944921D01*
X257146Y944838D01*
X257140Y944819D01*
X257129Y944802D01*
X257104Y944701D01*
X257073Y944602D01*
X257074Y944583D01*
X257069Y944563D01*
X257077Y944460D01*
X257080Y944357D01*
X257087Y944338D01*
X257088Y944318D01*
X257129Y944223D01*
X257164Y944126D01*
X257177Y944110D01*
X257184Y944092D01*
X257289Y943961D01*
X258923Y942327D01*
X259807Y940193D01*
X259807Y937883D01*
X258923Y935749D01*
X257289Y934115D01*
X255155Y933231D01*
X252845Y933231D01*
X250711Y934115D01*
X249060Y935766D01*
X248986Y935819D01*
X248916Y935879D01*
X248886Y935891D01*
X248860Y935910D01*
X248773Y935937D01*
X248688Y935971D01*
X248647Y935975D01*
X248625Y935982D01*
X248593Y935981D01*
X248521Y935989D01*
X218302Y935989D01*
X218206Y935973D01*
X218109Y935964D01*
X218085Y935954D01*
X218060Y935950D01*
X217973Y935904D01*
X217884Y935864D01*
X217865Y935847D01*
X217842Y935834D01*
X217775Y935764D01*
X217703Y935698D01*
X217691Y935675D01*
X217673Y935656D01*
X217632Y935568D01*
X217585Y935482D01*
X217580Y935456D01*
X217569Y935433D01*
X217558Y935336D01*
X217541Y935240D01*
X217545Y935214D01*
X217542Y935189D01*
X217563Y935093D01*
X217577Y934997D01*
X217589Y934974D01*
X217594Y934948D01*
X217644Y934864D01*
X217689Y934777D01*
X217707Y934759D01*
X217720Y934737D01*
X217795Y934674D01*
X217864Y934605D01*
X217892Y934590D01*
X219553Y932929D01*
X220437Y930795D01*
X220437Y928485D01*
X219553Y926351D01*
X217919Y924717D01*
X215785Y923833D01*
X213475Y923833D01*
X211341Y924717D01*
X209690Y926368D01*
X209616Y926421D01*
X209546Y926481D01*
X209516Y926493D01*
X209490Y926512D01*
X209403Y926539D01*
X209318Y926573D01*
X209277Y926577D01*
X209255Y926584D01*
X209223Y926583D01*
X209151Y926591D01*
X180349Y926591D01*
X180258Y926577D01*
X180168Y926569D01*
X180138Y926557D01*
X180106Y926552D01*
X180025Y926509D01*
X179941Y926473D01*
X179909Y926447D01*
X179888Y926436D01*
X179866Y926413D01*
X179810Y926368D01*
X178159Y924717D01*
X176025Y923833D01*
X173715Y923833D01*
X171581Y924717D01*
X169947Y926351D01*
X169063Y928485D01*
X169063Y930795D01*
X169947Y932929D01*
X171619Y934601D01*
X171658Y934622D01*
X171676Y934640D01*
X171698Y934654D01*
X171760Y934729D01*
X171827Y934800D01*
X171838Y934823D01*
X171855Y934843D01*
X171890Y934934D01*
X171931Y935023D01*
X171934Y935049D01*
X171943Y935073D01*
X171947Y935171D01*
X171958Y935267D01*
X171952Y935293D01*
X171954Y935319D01*
X171926Y935413D01*
X171906Y935508D01*
X171892Y935530D01*
X171885Y935555D01*
X171830Y935635D01*
X171780Y935719D01*
X171760Y935736D01*
X171745Y935757D01*
X171667Y935815D01*
X171593Y935879D01*
X171569Y935889D01*
X171548Y935904D01*
X171455Y935934D01*
X171364Y935971D01*
X171332Y935974D01*
X171314Y935980D01*
X171281Y935980D01*
X171198Y935989D01*
X140832Y935989D01*
X140736Y935973D01*
X140639Y935964D01*
X140615Y935954D01*
X140590Y935950D01*
X140503Y935904D01*
X140414Y935864D01*
X140395Y935847D01*
X140372Y935834D01*
X140305Y935764D01*
X140233Y935698D01*
X140221Y935675D01*
X140203Y935656D01*
X140162Y935568D01*
X140115Y935482D01*
X140110Y935456D01*
X140099Y935433D01*
X140088Y935336D01*
X140071Y935240D01*
X140075Y935214D01*
X140072Y935189D01*
X140093Y935093D01*
X140107Y934997D01*
X140119Y934974D01*
X140124Y934948D01*
X140174Y934864D01*
X140219Y934777D01*
X140237Y934759D01*
X140250Y934737D01*
X140325Y934674D01*
X140394Y934605D01*
X140422Y934590D01*
X142083Y932929D01*
X142967Y930795D01*
X142967Y928485D01*
X142083Y926351D01*
X140449Y924717D01*
X138315Y923833D01*
X135980Y923833D01*
X135890Y923819D01*
X135799Y923811D01*
X135769Y923799D01*
X135737Y923794D01*
X135657Y923751D01*
X135573Y923715D01*
X135541Y923689D01*
X135520Y923678D01*
X135498Y923655D01*
X135442Y923610D01*
X125192Y913360D01*
X125139Y913286D01*
X125079Y913217D01*
X125067Y913187D01*
X125048Y913160D01*
X125021Y913073D01*
X124987Y912989D01*
X124983Y912948D01*
X124976Y912925D01*
X124977Y912893D01*
X124969Y912822D01*
X124969Y804218D01*
X124983Y804128D01*
X124991Y804037D01*
X125003Y804007D01*
X125008Y803975D01*
X125051Y803895D01*
X125087Y803811D01*
X125113Y803779D01*
X125124Y803758D01*
X125147Y803736D01*
X125192Y803680D01*
X164931Y763940D01*
X165026Y763873D01*
X165120Y763802D01*
X165126Y763800D01*
X165131Y763797D01*
X165241Y763763D01*
X165354Y763726D01*
X165360Y763726D01*
X165366Y763724D01*
X165483Y763727D01*
X165600Y763728D01*
X165607Y763730D01*
X165612Y763731D01*
X165630Y763737D01*
X165636Y763739D01*
X168083Y763739D01*
X170309Y762817D01*
X172013Y761113D01*
X172935Y758887D01*
X172935Y756477D01*
X172013Y754251D01*
X170309Y752547D01*
X168083Y751625D01*
X165673Y751625D01*
G37*
%LPD*%
%LPC*%
G36*
X245175Y115101D02*
X245175Y115101D01*
X242949Y116023D01*
X241245Y117727D01*
X240323Y119953D01*
X240323Y122363D01*
X241245Y124589D01*
X242995Y126338D01*
X243061Y126378D01*
X243065Y126383D01*
X243070Y126386D01*
X243145Y126476D01*
X243221Y126565D01*
X243223Y126570D01*
X243227Y126575D01*
X243269Y126684D01*
X243313Y126793D01*
X243314Y126800D01*
X243315Y126805D01*
X243316Y126823D01*
X243331Y126960D01*
X243331Y397503D01*
X308617Y462789D01*
X334558Y462789D01*
X334674Y462808D01*
X334790Y462825D01*
X334795Y462827D01*
X334801Y462828D01*
X334904Y462883D01*
X335009Y462936D01*
X335013Y462941D01*
X335019Y462944D01*
X335099Y463028D01*
X335181Y463112D01*
X335185Y463118D01*
X335188Y463122D01*
X335196Y463139D01*
X335199Y463144D01*
X336929Y464875D01*
X339155Y465797D01*
X341565Y465797D01*
X343791Y464875D01*
X345495Y463171D01*
X346417Y460945D01*
X346417Y458535D01*
X345495Y456309D01*
X343791Y454605D01*
X341565Y453683D01*
X339155Y453683D01*
X336929Y454605D01*
X335180Y456355D01*
X335140Y456421D01*
X335135Y456425D01*
X335132Y456430D01*
X335042Y456505D01*
X334953Y456581D01*
X334948Y456583D01*
X334943Y456587D01*
X334834Y456629D01*
X334725Y456673D01*
X334718Y456674D01*
X334713Y456675D01*
X334695Y456676D01*
X334558Y456691D01*
X311458Y456691D01*
X311368Y456677D01*
X311277Y456669D01*
X311247Y456657D01*
X311215Y456652D01*
X311135Y456609D01*
X311051Y456573D01*
X311019Y456547D01*
X310998Y456536D01*
X310976Y456513D01*
X310920Y456468D01*
X308848Y454396D01*
X308806Y454338D01*
X308757Y454286D01*
X308735Y454239D01*
X308704Y454197D01*
X308683Y454128D01*
X308653Y454063D01*
X308647Y454011D01*
X308632Y453961D01*
X308634Y453890D01*
X308626Y453819D01*
X308637Y453768D01*
X308638Y453716D01*
X308663Y453648D01*
X308678Y453578D01*
X308705Y453533D01*
X308723Y453485D01*
X308768Y453429D01*
X308804Y453367D01*
X308844Y453333D01*
X308876Y453293D01*
X308937Y453254D01*
X308991Y453207D01*
X309040Y453188D01*
X309083Y453160D01*
X309153Y453142D01*
X309219Y453115D01*
X309291Y453107D01*
X309322Y453099D01*
X309345Y453101D01*
X309386Y453097D01*
X311085Y453097D01*
X313311Y452175D01*
X315015Y450471D01*
X315937Y448245D01*
X315937Y445835D01*
X315015Y443609D01*
X313311Y441905D01*
X311085Y440983D01*
X308643Y440983D01*
X308604Y440992D01*
X308490Y441021D01*
X308484Y441021D01*
X308478Y441022D01*
X308361Y441011D01*
X308245Y441002D01*
X308240Y441000D01*
X308233Y440999D01*
X308125Y440951D01*
X308019Y440906D01*
X308013Y440901D01*
X308009Y440899D01*
X307995Y440886D01*
X307888Y440801D01*
X259558Y392471D01*
X259505Y392397D01*
X259445Y392327D01*
X259433Y392297D01*
X259414Y392271D01*
X259387Y392184D01*
X259353Y392099D01*
X259349Y392058D01*
X259342Y392036D01*
X259343Y392004D01*
X259335Y391932D01*
X259335Y172865D01*
X259349Y172775D01*
X259357Y172684D01*
X259369Y172654D01*
X259374Y172622D01*
X259417Y172541D01*
X259453Y172457D01*
X259479Y172425D01*
X259490Y172404D01*
X259513Y172382D01*
X259558Y172326D01*
X259812Y172072D01*
X259870Y172030D01*
X259922Y171981D01*
X259969Y171959D01*
X260011Y171929D01*
X260080Y171908D01*
X260145Y171877D01*
X260197Y171872D01*
X260247Y171856D01*
X260318Y171858D01*
X260389Y171850D01*
X260440Y171861D01*
X260492Y171863D01*
X260560Y171887D01*
X260630Y171903D01*
X260675Y171929D01*
X260723Y171947D01*
X260779Y171992D01*
X260841Y172029D01*
X260875Y172068D01*
X260915Y172101D01*
X260954Y172161D01*
X261001Y172216D01*
X261020Y172264D01*
X261048Y172308D01*
X261066Y172377D01*
X261093Y172444D01*
X261101Y172515D01*
X261109Y172546D01*
X261107Y172570D01*
X261111Y172611D01*
X261111Y378473D01*
X296002Y413363D01*
X296069Y413458D01*
X296140Y413552D01*
X296142Y413558D01*
X296145Y413563D01*
X296179Y413673D01*
X296216Y413786D01*
X296216Y413792D01*
X296218Y413798D01*
X296215Y413915D01*
X296214Y414032D01*
X296212Y414039D01*
X296211Y414044D01*
X296205Y414062D01*
X296203Y414068D01*
X296203Y416515D01*
X297125Y418741D01*
X298829Y420445D01*
X301055Y421367D01*
X303465Y421367D01*
X305691Y420445D01*
X307395Y418741D01*
X308317Y416515D01*
X308317Y414105D01*
X307395Y411879D01*
X305691Y410175D01*
X303465Y409253D01*
X300991Y409253D01*
X300916Y409272D01*
X300910Y409272D01*
X300904Y409273D01*
X300787Y409262D01*
X300671Y409253D01*
X300665Y409251D01*
X300659Y409250D01*
X300550Y409202D01*
X300444Y409157D01*
X300439Y409152D01*
X300434Y409150D01*
X300420Y409137D01*
X300313Y409052D01*
X267432Y376170D01*
X267379Y376096D01*
X267319Y376027D01*
X267307Y375997D01*
X267288Y375970D01*
X267261Y375883D01*
X267227Y375799D01*
X267223Y375758D01*
X267216Y375735D01*
X267217Y375703D01*
X267209Y375632D01*
X267209Y164102D01*
X267222Y164018D01*
X267228Y163933D01*
X267231Y163924D01*
X267209Y162542D01*
X267210Y162537D01*
X267209Y162529D01*
X267209Y161268D01*
X266303Y160391D01*
X266300Y160387D01*
X266294Y160383D01*
X265316Y159404D01*
X265305Y159400D01*
X265265Y159369D01*
X265242Y159356D01*
X265221Y159335D01*
X265172Y159297D01*
X259567Y153872D01*
X259509Y153794D01*
X259445Y153720D01*
X259435Y153696D01*
X259420Y153675D01*
X259390Y153582D01*
X259353Y153492D01*
X259350Y153459D01*
X259344Y153441D01*
X259344Y153408D01*
X259335Y153325D01*
X259335Y142285D01*
X259349Y142195D01*
X259357Y142104D01*
X259369Y142074D01*
X259374Y142042D01*
X259417Y141962D01*
X259453Y141878D01*
X259479Y141846D01*
X259490Y141825D01*
X259513Y141803D01*
X259558Y141747D01*
X260997Y140308D01*
X261843Y138265D01*
X261843Y136055D01*
X260997Y134012D01*
X259434Y132449D01*
X257391Y131603D01*
X255181Y131603D01*
X253138Y132449D01*
X251575Y134012D01*
X250893Y135659D01*
X250842Y135742D01*
X250796Y135828D01*
X250778Y135845D01*
X250764Y135868D01*
X250688Y135930D01*
X250618Y135997D01*
X250594Y136008D01*
X250574Y136025D01*
X250483Y136060D01*
X250395Y136101D01*
X250369Y136103D01*
X250345Y136113D01*
X250247Y136117D01*
X250151Y136128D01*
X250125Y136122D01*
X250099Y136123D01*
X250005Y136096D01*
X249910Y136075D01*
X249888Y136062D01*
X249863Y136055D01*
X249783Y135999D01*
X249699Y135949D01*
X249682Y135929D01*
X249661Y135914D01*
X249602Y135836D01*
X249539Y135762D01*
X249529Y135738D01*
X249514Y135717D01*
X249484Y135625D01*
X249447Y135534D01*
X249444Y135502D01*
X249438Y135483D01*
X249438Y135450D01*
X249429Y135367D01*
X249429Y126960D01*
X249448Y126844D01*
X249465Y126728D01*
X249467Y126723D01*
X249468Y126717D01*
X249523Y126614D01*
X249576Y126509D01*
X249581Y126505D01*
X249584Y126499D01*
X249668Y126419D01*
X249752Y126337D01*
X249758Y126333D01*
X249762Y126330D01*
X249779Y126322D01*
X249784Y126319D01*
X251515Y124589D01*
X252437Y122363D01*
X252437Y119953D01*
X251515Y117727D01*
X249811Y116023D01*
X247585Y115101D01*
X245175Y115101D01*
G37*
%LPD*%
%LPC*%
G36*
X196816Y1041955D02*
X196816Y1041955D01*
X194406Y1042953D01*
X192561Y1044798D01*
X191563Y1047208D01*
X191563Y1049816D01*
X192561Y1052226D01*
X194406Y1054071D01*
X196816Y1055069D01*
X198613Y1055069D01*
X198703Y1055083D01*
X198794Y1055091D01*
X198824Y1055103D01*
X198856Y1055108D01*
X198936Y1055151D01*
X199020Y1055187D01*
X199052Y1055213D01*
X199073Y1055224D01*
X199095Y1055247D01*
X199151Y1055292D01*
X214152Y1070293D01*
X214205Y1070367D01*
X214265Y1070436D01*
X214277Y1070466D01*
X214296Y1070492D01*
X214323Y1070579D01*
X214357Y1070664D01*
X214361Y1070705D01*
X214368Y1070728D01*
X214367Y1070760D01*
X214375Y1070831D01*
X214375Y1124364D01*
X275112Y1185101D01*
X275165Y1185175D01*
X275225Y1185244D01*
X275237Y1185274D01*
X275256Y1185300D01*
X275283Y1185387D01*
X275317Y1185472D01*
X275321Y1185513D01*
X275328Y1185536D01*
X275327Y1185568D01*
X275335Y1185639D01*
X275335Y1213795D01*
X275321Y1213885D01*
X275313Y1213976D01*
X275301Y1214006D01*
X275296Y1214038D01*
X275253Y1214118D01*
X275217Y1214202D01*
X275191Y1214234D01*
X275180Y1214255D01*
X275157Y1214277D01*
X275112Y1214333D01*
X274604Y1214841D01*
X274546Y1214883D01*
X274494Y1214932D01*
X274447Y1214954D01*
X274405Y1214985D01*
X274336Y1215006D01*
X274271Y1215036D01*
X274219Y1215042D01*
X274169Y1215057D01*
X274098Y1215055D01*
X274027Y1215063D01*
X273976Y1215052D01*
X273924Y1215051D01*
X273856Y1215026D01*
X273786Y1215011D01*
X273741Y1214984D01*
X273693Y1214966D01*
X273637Y1214921D01*
X273575Y1214885D01*
X273541Y1214845D01*
X273501Y1214813D01*
X273462Y1214752D01*
X273415Y1214698D01*
X273396Y1214649D01*
X273368Y1214606D01*
X273350Y1214536D01*
X273323Y1214470D01*
X273315Y1214398D01*
X273307Y1214367D01*
X273309Y1214344D01*
X273305Y1214303D01*
X273305Y1187036D01*
X258224Y1171955D01*
X249363Y1171955D01*
X249273Y1171941D01*
X249182Y1171933D01*
X249152Y1171921D01*
X249120Y1171916D01*
X249040Y1171873D01*
X248956Y1171837D01*
X248924Y1171811D01*
X248903Y1171800D01*
X248881Y1171777D01*
X248825Y1171732D01*
X247554Y1170461D01*
X245144Y1169463D01*
X242536Y1169463D01*
X240126Y1170461D01*
X238281Y1172306D01*
X237283Y1174716D01*
X237283Y1177324D01*
X238281Y1179734D01*
X240126Y1181579D01*
X242536Y1182577D01*
X245144Y1182577D01*
X247554Y1181579D01*
X248825Y1180308D01*
X248899Y1180255D01*
X248968Y1180195D01*
X248998Y1180183D01*
X249025Y1180164D01*
X249112Y1180137D01*
X249196Y1180103D01*
X249237Y1180099D01*
X249260Y1180092D01*
X249292Y1180093D01*
X249363Y1180085D01*
X254541Y1180085D01*
X254631Y1180099D01*
X254722Y1180107D01*
X254752Y1180119D01*
X254784Y1180124D01*
X254864Y1180167D01*
X254948Y1180203D01*
X254980Y1180229D01*
X255001Y1180240D01*
X255023Y1180263D01*
X255079Y1180308D01*
X264952Y1190181D01*
X265005Y1190255D01*
X265065Y1190324D01*
X265077Y1190354D01*
X265096Y1190380D01*
X265123Y1190467D01*
X265157Y1190552D01*
X265161Y1190593D01*
X265168Y1190616D01*
X265167Y1190648D01*
X265175Y1190719D01*
X265175Y1225964D01*
X290924Y1251713D01*
X316041Y1251713D01*
X316131Y1251727D01*
X316222Y1251735D01*
X316252Y1251747D01*
X316284Y1251752D01*
X316364Y1251795D01*
X316448Y1251831D01*
X316480Y1251857D01*
X316501Y1251868D01*
X316523Y1251891D01*
X316579Y1251936D01*
X317850Y1253207D01*
X320260Y1254205D01*
X322868Y1254205D01*
X325278Y1253207D01*
X327123Y1251362D01*
X328121Y1248952D01*
X328121Y1246344D01*
X327355Y1244494D01*
X327332Y1244399D01*
X327304Y1244306D01*
X327304Y1244280D01*
X327298Y1244255D01*
X327308Y1244158D01*
X327310Y1244060D01*
X327319Y1244036D01*
X327322Y1244010D01*
X327361Y1243921D01*
X327395Y1243829D01*
X327411Y1243809D01*
X327422Y1243785D01*
X327487Y1243713D01*
X327548Y1243637D01*
X327570Y1243623D01*
X327588Y1243604D01*
X327673Y1243557D01*
X327755Y1243504D01*
X327780Y1243498D01*
X327803Y1243485D01*
X327899Y1243468D01*
X327994Y1243444D01*
X328020Y1243446D01*
X328045Y1243442D01*
X328142Y1243456D01*
X328239Y1243463D01*
X328263Y1243474D01*
X328289Y1243477D01*
X328376Y1243522D01*
X328465Y1243560D01*
X328491Y1243580D01*
X328508Y1243589D01*
X328531Y1243613D01*
X328596Y1243665D01*
X332262Y1247331D01*
X332315Y1247405D01*
X332375Y1247474D01*
X332387Y1247504D01*
X332406Y1247530D01*
X332433Y1247618D01*
X332467Y1247702D01*
X332471Y1247743D01*
X332478Y1247766D01*
X332477Y1247798D01*
X332485Y1247869D01*
X332485Y1280987D01*
X332471Y1281077D01*
X332463Y1281168D01*
X332451Y1281198D01*
X332446Y1281230D01*
X332403Y1281310D01*
X332367Y1281394D01*
X332341Y1281426D01*
X332330Y1281447D01*
X332307Y1281469D01*
X332262Y1281525D01*
X330991Y1282796D01*
X329993Y1285206D01*
X329993Y1287814D01*
X330991Y1290224D01*
X332836Y1292069D01*
X335246Y1293067D01*
X337854Y1293067D01*
X340264Y1292069D01*
X342109Y1290224D01*
X343107Y1287814D01*
X343107Y1285206D01*
X342109Y1282796D01*
X340838Y1281525D01*
X340785Y1281451D01*
X340725Y1281382D01*
X340713Y1281352D01*
X340694Y1281325D01*
X340667Y1281238D01*
X340633Y1281154D01*
X340629Y1281113D01*
X340622Y1281090D01*
X340623Y1281058D01*
X340615Y1280987D01*
X340615Y1244186D01*
X329344Y1232915D01*
X304259Y1232915D01*
X304169Y1232901D01*
X304078Y1232893D01*
X304048Y1232881D01*
X304016Y1232876D01*
X303936Y1232833D01*
X303852Y1232797D01*
X303820Y1232771D01*
X303799Y1232760D01*
X303777Y1232737D01*
X303721Y1232692D01*
X294308Y1223279D01*
X294255Y1223205D01*
X294195Y1223136D01*
X294183Y1223106D01*
X294164Y1223080D01*
X294137Y1222993D01*
X294103Y1222908D01*
X294099Y1222867D01*
X294092Y1222844D01*
X294093Y1222812D01*
X294085Y1222741D01*
X294085Y1177336D01*
X232888Y1116139D01*
X232835Y1116065D01*
X232775Y1115996D01*
X232763Y1115966D01*
X232744Y1115940D01*
X232717Y1115853D01*
X232683Y1115768D01*
X232679Y1115727D01*
X232672Y1115704D01*
X232673Y1115672D01*
X232665Y1115601D01*
X232665Y1062068D01*
X230061Y1059464D01*
X220140Y1049543D01*
X220087Y1049469D01*
X220027Y1049400D01*
X220015Y1049370D01*
X219996Y1049344D01*
X219969Y1049257D01*
X219935Y1049172D01*
X219931Y1049131D01*
X219924Y1049109D01*
X219925Y1049076D01*
X219917Y1049005D01*
X219917Y1047208D01*
X218919Y1044798D01*
X217074Y1042953D01*
X214664Y1041955D01*
X212056Y1041955D01*
X209646Y1042953D01*
X207801Y1044798D01*
X206803Y1047208D01*
X206803Y1049609D01*
X206792Y1049680D01*
X206790Y1049752D01*
X206772Y1049800D01*
X206764Y1049852D01*
X206730Y1049915D01*
X206705Y1049983D01*
X206673Y1050023D01*
X206648Y1050069D01*
X206597Y1050119D01*
X206552Y1050175D01*
X206508Y1050203D01*
X206470Y1050239D01*
X206405Y1050269D01*
X206345Y1050308D01*
X206294Y1050320D01*
X206247Y1050342D01*
X206176Y1050350D01*
X206106Y1050368D01*
X206054Y1050364D01*
X206003Y1050369D01*
X205932Y1050354D01*
X205861Y1050348D01*
X205813Y1050328D01*
X205762Y1050317D01*
X205701Y1050280D01*
X205635Y1050252D01*
X205579Y1050207D01*
X205551Y1050191D01*
X205536Y1050173D01*
X205504Y1050147D01*
X204900Y1049543D01*
X204846Y1049469D01*
X204787Y1049400D01*
X204775Y1049370D01*
X204756Y1049344D01*
X204729Y1049256D01*
X204695Y1049172D01*
X204691Y1049131D01*
X204684Y1049108D01*
X204685Y1049076D01*
X204677Y1049005D01*
X204677Y1047208D01*
X203679Y1044798D01*
X201834Y1042953D01*
X199424Y1041955D01*
X196816Y1041955D01*
G37*
%LPD*%
%LPC*%
G36*
X217235Y613703D02*
X217235Y613703D01*
X215009Y614625D01*
X213305Y616329D01*
X212383Y618555D01*
X212383Y621029D01*
X212402Y621104D01*
X212402Y621110D01*
X212403Y621116D01*
X212392Y621234D01*
X212383Y621349D01*
X212381Y621355D01*
X212380Y621361D01*
X212332Y621470D01*
X212287Y621576D01*
X212282Y621581D01*
X212280Y621586D01*
X212268Y621600D01*
X212182Y621707D01*
X116942Y716946D01*
X116868Y716999D01*
X116799Y717059D01*
X116769Y717071D01*
X116742Y717090D01*
X116655Y717117D01*
X116571Y717151D01*
X116530Y717155D01*
X116507Y717162D01*
X116475Y717161D01*
X116404Y717169D01*
X92763Y717169D01*
X92673Y717155D01*
X92582Y717147D01*
X92552Y717135D01*
X92520Y717130D01*
X92440Y717087D01*
X92356Y717051D01*
X92323Y717025D01*
X92303Y717014D01*
X92281Y716991D01*
X92225Y716946D01*
X92035Y716756D01*
X92023Y716740D01*
X92007Y716728D01*
X91951Y716641D01*
X91891Y716557D01*
X91885Y716538D01*
X91874Y716521D01*
X91849Y716421D01*
X91819Y716322D01*
X91819Y716302D01*
X91814Y716282D01*
X91822Y716179D01*
X91825Y716076D01*
X91832Y716057D01*
X91833Y716037D01*
X91874Y715942D01*
X91909Y715845D01*
X91922Y715829D01*
X91930Y715811D01*
X92035Y715680D01*
X92225Y715490D01*
X92299Y715437D01*
X92368Y715377D01*
X92398Y715365D01*
X92424Y715346D01*
X92511Y715319D01*
X92596Y715285D01*
X92637Y715281D01*
X92659Y715274D01*
X92692Y715275D01*
X92763Y715267D01*
X112005Y715267D01*
X119973Y707298D01*
X120069Y707230D01*
X120162Y707160D01*
X120168Y707158D01*
X120173Y707155D01*
X120285Y707120D01*
X120396Y707084D01*
X120402Y707084D01*
X120408Y707082D01*
X120525Y707085D01*
X120642Y707086D01*
X120649Y707088D01*
X120654Y707089D01*
X120671Y707095D01*
X120678Y707097D01*
X123125Y707097D01*
X125351Y706175D01*
X127055Y704471D01*
X127977Y702245D01*
X127977Y699835D01*
X127055Y697609D01*
X125351Y695905D01*
X123125Y694983D01*
X120715Y694983D01*
X118489Y695905D01*
X116785Y697609D01*
X115863Y699835D01*
X115863Y702309D01*
X115882Y702384D01*
X115882Y702390D01*
X115883Y702396D01*
X115872Y702514D01*
X115863Y702629D01*
X115861Y702635D01*
X115860Y702641D01*
X115812Y702750D01*
X115767Y702856D01*
X115762Y702861D01*
X115760Y702866D01*
X115748Y702880D01*
X115662Y702987D01*
X109702Y708946D01*
X109628Y708999D01*
X109559Y709059D01*
X109529Y709071D01*
X109502Y709090D01*
X109415Y709117D01*
X109331Y709151D01*
X109290Y709155D01*
X109267Y709162D01*
X109235Y709161D01*
X109164Y709169D01*
X92763Y709169D01*
X92673Y709155D01*
X92582Y709147D01*
X92552Y709135D01*
X92520Y709130D01*
X92439Y709087D01*
X92356Y709051D01*
X92323Y709025D01*
X92303Y709014D01*
X92281Y708991D01*
X92225Y708946D01*
X91472Y708193D01*
X68762Y708193D01*
X68742Y708190D01*
X68723Y708192D01*
X68621Y708170D01*
X68519Y708154D01*
X68502Y708144D01*
X68482Y708140D01*
X68393Y708087D01*
X68302Y708038D01*
X68288Y708024D01*
X68271Y708014D01*
X68204Y707935D01*
X68132Y707860D01*
X68124Y707842D01*
X68111Y707827D01*
X68072Y707731D01*
X68029Y707637D01*
X68027Y707617D01*
X68019Y707599D01*
X68001Y707432D01*
X68001Y703302D01*
X65769Y697913D01*
X61645Y693789D01*
X56256Y691557D01*
X50424Y691557D01*
X45035Y693789D01*
X40911Y697913D01*
X38679Y703302D01*
X38679Y709134D01*
X40911Y714523D01*
X45035Y718647D01*
X50424Y720879D01*
X56256Y720879D01*
X61645Y718647D01*
X63016Y717276D01*
X63074Y717234D01*
X63126Y717184D01*
X63173Y717163D01*
X63215Y717132D01*
X63284Y717111D01*
X63349Y717081D01*
X63401Y717075D01*
X63451Y717060D01*
X63522Y717062D01*
X63593Y717054D01*
X63644Y717065D01*
X63696Y717066D01*
X63764Y717091D01*
X63834Y717106D01*
X63879Y717133D01*
X63927Y717151D01*
X63983Y717195D01*
X64045Y717232D01*
X64079Y717272D01*
X64119Y717304D01*
X64158Y717365D01*
X64205Y717419D01*
X64224Y717467D01*
X64252Y717511D01*
X64270Y717581D01*
X64297Y717647D01*
X64305Y717719D01*
X64313Y717750D01*
X64311Y717773D01*
X64315Y717814D01*
X64315Y723350D01*
X64645Y723680D01*
X64657Y723696D01*
X64673Y723708D01*
X64701Y723753D01*
X64732Y723785D01*
X64751Y723827D01*
X64789Y723879D01*
X64795Y723898D01*
X64806Y723915D01*
X64821Y723978D01*
X64835Y724008D01*
X64839Y724043D01*
X64861Y724115D01*
X64861Y724134D01*
X64866Y724154D01*
X64860Y724228D01*
X64863Y724253D01*
X64857Y724278D01*
X64855Y724360D01*
X64848Y724379D01*
X64847Y724399D01*
X64814Y724475D01*
X64810Y724493D01*
X64800Y724510D01*
X64771Y724591D01*
X64758Y724607D01*
X64750Y724625D01*
X64645Y724756D01*
X64315Y725086D01*
X64315Y731350D01*
X64645Y731680D01*
X64657Y731696D01*
X64673Y731708D01*
X64729Y731795D01*
X64789Y731879D01*
X64795Y731898D01*
X64806Y731915D01*
X64831Y732016D01*
X64861Y732115D01*
X64861Y732134D01*
X64866Y732154D01*
X64858Y732257D01*
X64855Y732360D01*
X64848Y732379D01*
X64847Y732399D01*
X64806Y732494D01*
X64771Y732591D01*
X64758Y732607D01*
X64750Y732625D01*
X64645Y732756D01*
X64315Y733086D01*
X64315Y738622D01*
X64304Y738693D01*
X64302Y738764D01*
X64284Y738813D01*
X64276Y738865D01*
X64242Y738928D01*
X64217Y738995D01*
X64185Y739036D01*
X64160Y739082D01*
X64108Y739132D01*
X64064Y739188D01*
X64020Y739216D01*
X63982Y739252D01*
X63917Y739282D01*
X63857Y739321D01*
X63806Y739333D01*
X63759Y739355D01*
X63688Y739363D01*
X63618Y739381D01*
X63566Y739377D01*
X63515Y739382D01*
X63444Y739367D01*
X63373Y739361D01*
X63325Y739341D01*
X63274Y739330D01*
X63213Y739293D01*
X63147Y739265D01*
X63091Y739220D01*
X63063Y739204D01*
X63048Y739186D01*
X63016Y739160D01*
X61645Y737789D01*
X56256Y735557D01*
X50424Y735557D01*
X45035Y737789D01*
X40911Y741913D01*
X38679Y747302D01*
X38679Y753134D01*
X40911Y758523D01*
X45035Y762647D01*
X50424Y764879D01*
X56256Y764879D01*
X61645Y762647D01*
X65769Y758523D01*
X68001Y753134D01*
X68001Y747302D01*
X65769Y741913D01*
X65398Y741542D01*
X65356Y741484D01*
X65306Y741432D01*
X65285Y741385D01*
X65254Y741343D01*
X65233Y741274D01*
X65203Y741209D01*
X65197Y741157D01*
X65182Y741107D01*
X65184Y741036D01*
X65176Y740965D01*
X65187Y740914D01*
X65188Y740862D01*
X65213Y740794D01*
X65228Y740724D01*
X65255Y740679D01*
X65273Y740631D01*
X65317Y740575D01*
X65354Y740513D01*
X65394Y740479D01*
X65426Y740439D01*
X65487Y740400D01*
X65541Y740353D01*
X65589Y740334D01*
X65633Y740306D01*
X65703Y740288D01*
X65769Y740261D01*
X65841Y740253D01*
X65872Y740245D01*
X65895Y740247D01*
X65936Y740243D01*
X91472Y740243D01*
X92365Y739350D01*
X92365Y733086D01*
X92035Y732756D01*
X92023Y732740D01*
X92007Y732728D01*
X91951Y732640D01*
X91891Y732557D01*
X91885Y732538D01*
X91874Y732521D01*
X91849Y732420D01*
X91819Y732321D01*
X91819Y732301D01*
X91814Y732282D01*
X91822Y732179D01*
X91825Y732076D01*
X91832Y732057D01*
X91833Y732037D01*
X91874Y731942D01*
X91909Y731845D01*
X91922Y731829D01*
X91930Y731811D01*
X92035Y731680D01*
X92225Y731490D01*
X92299Y731436D01*
X92368Y731377D01*
X92398Y731365D01*
X92424Y731346D01*
X92511Y731319D01*
X92596Y731285D01*
X92637Y731281D01*
X92659Y731274D01*
X92692Y731275D01*
X92763Y731267D01*
X123945Y731267D01*
X229193Y626018D01*
X229288Y625950D01*
X229382Y625880D01*
X229388Y625878D01*
X229393Y625875D01*
X229505Y625840D01*
X229616Y625804D01*
X229622Y625804D01*
X229628Y625802D01*
X229745Y625805D01*
X229862Y625806D01*
X229869Y625808D01*
X229874Y625809D01*
X229891Y625815D01*
X229898Y625817D01*
X232345Y625817D01*
X234571Y624895D01*
X236275Y623191D01*
X237197Y620965D01*
X237197Y618555D01*
X236275Y616329D01*
X234571Y614625D01*
X232345Y613703D01*
X229935Y613703D01*
X227709Y614625D01*
X226005Y616329D01*
X225493Y617565D01*
X225456Y617626D01*
X225426Y617692D01*
X225391Y617730D01*
X225364Y617774D01*
X225308Y617820D01*
X225260Y617873D01*
X225214Y617898D01*
X225174Y617931D01*
X225107Y617957D01*
X225044Y617991D01*
X224993Y618001D01*
X224945Y618019D01*
X224873Y618022D01*
X224802Y618035D01*
X224751Y618028D01*
X224699Y618030D01*
X224630Y618010D01*
X224559Y617999D01*
X224513Y617976D01*
X224463Y617961D01*
X224404Y617920D01*
X224340Y617888D01*
X224303Y617851D01*
X224261Y617821D01*
X224218Y617763D01*
X224168Y617712D01*
X224133Y617649D01*
X224114Y617624D01*
X224107Y617601D01*
X224087Y617565D01*
X223575Y616329D01*
X221871Y614625D01*
X219645Y613703D01*
X217235Y613703D01*
G37*
%LPD*%
%LPC*%
G36*
X328233Y885483D02*
X328233Y885483D01*
X326007Y886405D01*
X324303Y888109D01*
X323381Y890335D01*
X323381Y892745D01*
X324303Y894971D01*
X326053Y896720D01*
X326119Y896760D01*
X326123Y896765D01*
X326128Y896768D01*
X326203Y896858D01*
X326279Y896947D01*
X326281Y896952D01*
X326285Y896957D01*
X326327Y897066D01*
X326371Y897175D01*
X326372Y897182D01*
X326373Y897187D01*
X326374Y897205D01*
X326389Y897342D01*
X326389Y905266D01*
X326378Y905337D01*
X326376Y905408D01*
X326358Y905457D01*
X326350Y905509D01*
X326316Y905572D01*
X326291Y905639D01*
X326259Y905680D01*
X326234Y905726D01*
X326182Y905775D01*
X326138Y905831D01*
X326094Y905860D01*
X326056Y905895D01*
X325991Y905926D01*
X325931Y905964D01*
X325880Y905977D01*
X325833Y905999D01*
X325762Y906007D01*
X325692Y906024D01*
X325640Y906020D01*
X325589Y906026D01*
X325518Y906011D01*
X325447Y906005D01*
X325399Y905985D01*
X325348Y905974D01*
X325287Y905937D01*
X325221Y905909D01*
X325165Y905864D01*
X325137Y905848D01*
X325122Y905830D01*
X325090Y905804D01*
X323471Y904185D01*
X321245Y903263D01*
X318835Y903263D01*
X316609Y904185D01*
X314905Y905889D01*
X313983Y908115D01*
X313983Y910525D01*
X314905Y912751D01*
X316655Y914500D01*
X316721Y914540D01*
X316725Y914545D01*
X316730Y914548D01*
X316805Y914638D01*
X316881Y914727D01*
X316883Y914732D01*
X316887Y914737D01*
X316929Y914846D01*
X316973Y914955D01*
X316974Y914962D01*
X316975Y914967D01*
X316976Y914985D01*
X316991Y915122D01*
X316991Y1121265D01*
X316977Y1121356D01*
X316969Y1121446D01*
X316957Y1121476D01*
X316952Y1121508D01*
X316909Y1121589D01*
X316873Y1121673D01*
X316847Y1121705D01*
X316836Y1121726D01*
X316813Y1121748D01*
X316768Y1121804D01*
X315117Y1123455D01*
X314233Y1125589D01*
X314233Y1127899D01*
X315117Y1130033D01*
X316751Y1131667D01*
X318885Y1132551D01*
X321195Y1132551D01*
X323329Y1131667D01*
X325001Y1129995D01*
X325022Y1129956D01*
X325040Y1129938D01*
X325054Y1129916D01*
X325129Y1129854D01*
X325200Y1129787D01*
X325224Y1129776D01*
X325244Y1129759D01*
X325334Y1129724D01*
X325423Y1129683D01*
X325449Y1129680D01*
X325473Y1129671D01*
X325571Y1129667D01*
X325667Y1129656D01*
X325693Y1129662D01*
X325719Y1129660D01*
X325812Y1129688D01*
X325908Y1129708D01*
X325930Y1129722D01*
X325955Y1129729D01*
X326035Y1129784D01*
X326119Y1129835D01*
X326136Y1129854D01*
X326157Y1129869D01*
X326215Y1129947D01*
X326279Y1130021D01*
X326289Y1130046D01*
X326304Y1130066D01*
X326334Y1130159D01*
X326371Y1130250D01*
X326374Y1130282D01*
X326380Y1130300D01*
X326380Y1130333D01*
X326389Y1130416D01*
X326389Y1133300D01*
X326370Y1133415D01*
X326353Y1133531D01*
X326351Y1133536D01*
X326350Y1133543D01*
X326295Y1133646D01*
X326242Y1133750D01*
X326237Y1133754D01*
X326234Y1133760D01*
X326150Y1133840D01*
X326066Y1133922D01*
X326060Y1133926D01*
X326056Y1133929D01*
X326039Y1133937D01*
X325919Y1134003D01*
X325895Y1134013D01*
X324261Y1135647D01*
X323377Y1137781D01*
X323377Y1140091D01*
X324261Y1142225D01*
X325895Y1143859D01*
X328029Y1144743D01*
X330339Y1144743D01*
X332473Y1143859D01*
X334107Y1142225D01*
X334991Y1140091D01*
X334991Y1137781D01*
X334107Y1135647D01*
X332710Y1134250D01*
X332657Y1134176D01*
X332597Y1134106D01*
X332585Y1134076D01*
X332566Y1134050D01*
X332539Y1133963D01*
X332505Y1133878D01*
X332501Y1133837D01*
X332494Y1133815D01*
X332495Y1133783D01*
X332487Y1133711D01*
X332487Y897342D01*
X332506Y897226D01*
X332523Y897110D01*
X332525Y897105D01*
X332526Y897099D01*
X332581Y896996D01*
X332634Y896891D01*
X332639Y896887D01*
X332642Y896881D01*
X332726Y896801D01*
X332810Y896719D01*
X332816Y896715D01*
X332820Y896712D01*
X332837Y896704D01*
X332842Y896701D01*
X334573Y894971D01*
X335495Y892745D01*
X335495Y890335D01*
X334573Y888109D01*
X332869Y886405D01*
X330643Y885483D01*
X328233Y885483D01*
G37*
%LPD*%
%LPC*%
G36*
X403925Y1304583D02*
X403925Y1304583D01*
X401699Y1305505D01*
X399950Y1307255D01*
X399910Y1307321D01*
X399905Y1307325D01*
X399902Y1307330D01*
X399812Y1307405D01*
X399723Y1307481D01*
X399718Y1307483D01*
X399713Y1307487D01*
X399604Y1307529D01*
X399495Y1307573D01*
X399488Y1307574D01*
X399483Y1307575D01*
X399465Y1307576D01*
X399328Y1307591D01*
X334017Y1307591D01*
X294131Y1347477D01*
X294131Y1381038D01*
X294112Y1381154D01*
X294095Y1381270D01*
X294093Y1381275D01*
X294092Y1381281D01*
X294037Y1381384D01*
X293984Y1381489D01*
X293979Y1381493D01*
X293976Y1381499D01*
X293892Y1381579D01*
X293808Y1381661D01*
X293802Y1381665D01*
X293798Y1381668D01*
X293781Y1381676D01*
X293776Y1381679D01*
X292045Y1383409D01*
X291123Y1385635D01*
X291123Y1388045D01*
X292045Y1390271D01*
X293749Y1391975D01*
X295975Y1392897D01*
X298385Y1392897D01*
X300699Y1391938D01*
X300743Y1391928D01*
X300785Y1391908D01*
X300862Y1391900D01*
X300938Y1391882D01*
X300984Y1391886D01*
X301029Y1391881D01*
X301106Y1391898D01*
X301183Y1391905D01*
X301225Y1391924D01*
X301270Y1391934D01*
X301337Y1391974D01*
X301408Y1392005D01*
X301442Y1392036D01*
X301481Y1392060D01*
X301532Y1392119D01*
X301589Y1392172D01*
X301611Y1392212D01*
X301641Y1392247D01*
X301670Y1392319D01*
X301707Y1392387D01*
X301716Y1392432D01*
X301733Y1392475D01*
X301748Y1392611D01*
X301751Y1392629D01*
X301750Y1392634D01*
X301751Y1392642D01*
X301751Y1410063D01*
X301737Y1410154D01*
X301729Y1410244D01*
X301717Y1410274D01*
X301712Y1410306D01*
X301669Y1410387D01*
X301633Y1410471D01*
X301607Y1410503D01*
X301596Y1410524D01*
X301573Y1410546D01*
X301528Y1410602D01*
X299877Y1412253D01*
X298993Y1414387D01*
X298993Y1416697D01*
X299877Y1418831D01*
X301511Y1420465D01*
X303645Y1421349D01*
X305955Y1421349D01*
X308089Y1420465D01*
X309723Y1418831D01*
X310607Y1416697D01*
X310607Y1414387D01*
X309723Y1412253D01*
X308072Y1410602D01*
X308024Y1410536D01*
X308017Y1410528D01*
X308014Y1410523D01*
X307959Y1410458D01*
X307947Y1410428D01*
X307928Y1410402D01*
X307901Y1410315D01*
X307867Y1410230D01*
X307863Y1410189D01*
X307856Y1410167D01*
X307857Y1410135D01*
X307849Y1410063D01*
X307849Y1353366D01*
X307863Y1353276D01*
X307871Y1353185D01*
X307883Y1353155D01*
X307888Y1353123D01*
X307931Y1353043D01*
X307967Y1352959D01*
X307993Y1352927D01*
X308004Y1352906D01*
X308027Y1352884D01*
X308072Y1352828D01*
X339114Y1321786D01*
X339188Y1321733D01*
X339257Y1321673D01*
X339287Y1321661D01*
X339314Y1321642D01*
X339401Y1321615D01*
X339485Y1321581D01*
X339526Y1321577D01*
X339549Y1321570D01*
X339581Y1321571D01*
X339652Y1321563D01*
X369724Y1321563D01*
X369820Y1321578D01*
X369917Y1321588D01*
X369941Y1321598D01*
X369967Y1321602D01*
X370053Y1321648D01*
X370142Y1321688D01*
X370161Y1321705D01*
X370185Y1321718D01*
X370252Y1321788D01*
X370323Y1321854D01*
X370336Y1321877D01*
X370354Y1321896D01*
X370395Y1321984D01*
X370442Y1322070D01*
X370447Y1322095D01*
X370458Y1322119D01*
X370468Y1322216D01*
X370486Y1322312D01*
X370482Y1322338D01*
X370485Y1322363D01*
X370464Y1322459D01*
X370450Y1322555D01*
X370438Y1322578D01*
X370432Y1322604D01*
X370382Y1322687D01*
X370338Y1322774D01*
X370320Y1322793D01*
X370306Y1322815D01*
X370232Y1322878D01*
X370163Y1322946D01*
X370134Y1322962D01*
X370119Y1322975D01*
X370089Y1322987D01*
X370016Y1323027D01*
X367701Y1323986D01*
X364628Y1327059D01*
X362965Y1331073D01*
X362965Y1335419D01*
X364628Y1339433D01*
X367701Y1342506D01*
X371715Y1344169D01*
X376061Y1344169D01*
X380075Y1342506D01*
X383148Y1339433D01*
X384811Y1335419D01*
X384811Y1331073D01*
X383148Y1327059D01*
X380075Y1323986D01*
X377760Y1323027D01*
X377677Y1322976D01*
X377591Y1322930D01*
X377573Y1322911D01*
X377551Y1322898D01*
X377489Y1322823D01*
X377422Y1322752D01*
X377411Y1322728D01*
X377394Y1322708D01*
X377360Y1322617D01*
X377318Y1322529D01*
X377316Y1322503D01*
X377306Y1322479D01*
X377302Y1322381D01*
X377291Y1322285D01*
X377297Y1322259D01*
X377296Y1322233D01*
X377323Y1322139D01*
X377344Y1322044D01*
X377357Y1322022D01*
X377364Y1321997D01*
X377420Y1321917D01*
X377470Y1321833D01*
X377490Y1321816D01*
X377505Y1321795D01*
X377583Y1321736D01*
X377657Y1321673D01*
X377681Y1321663D01*
X377702Y1321648D01*
X377794Y1321618D01*
X377885Y1321581D01*
X377917Y1321578D01*
X377936Y1321572D01*
X377969Y1321572D01*
X378052Y1321563D01*
X390761Y1321563D01*
X390852Y1321577D01*
X390942Y1321585D01*
X390972Y1321597D01*
X391004Y1321602D01*
X391085Y1321645D01*
X391169Y1321681D01*
X391201Y1321707D01*
X391222Y1321718D01*
X391244Y1321741D01*
X391300Y1321786D01*
X392951Y1323437D01*
X395085Y1324321D01*
X397395Y1324321D01*
X399529Y1323437D01*
X401163Y1321803D01*
X402047Y1319669D01*
X402047Y1317359D01*
X402030Y1317318D01*
X402013Y1317248D01*
X401988Y1317182D01*
X401986Y1317129D01*
X401974Y1317079D01*
X401980Y1317007D01*
X401977Y1316936D01*
X401992Y1316886D01*
X401997Y1316834D01*
X402026Y1316768D01*
X402046Y1316700D01*
X402076Y1316657D01*
X402097Y1316609D01*
X402145Y1316556D01*
X402186Y1316497D01*
X402228Y1316466D01*
X402263Y1316428D01*
X402326Y1316393D01*
X402384Y1316351D01*
X402433Y1316335D01*
X402479Y1316309D01*
X402549Y1316297D01*
X402617Y1316275D01*
X402670Y1316275D01*
X402721Y1316266D01*
X402792Y1316276D01*
X402863Y1316277D01*
X402932Y1316297D01*
X402964Y1316302D01*
X402985Y1316312D01*
X403025Y1316324D01*
X403925Y1316697D01*
X406335Y1316697D01*
X408561Y1315775D01*
X410265Y1314071D01*
X411187Y1311845D01*
X411187Y1309435D01*
X410265Y1307209D01*
X408561Y1305505D01*
X406335Y1304583D01*
X403925Y1304583D01*
G37*
%LPD*%
%LPC*%
G36*
X339155Y867703D02*
X339155Y867703D01*
X336929Y868625D01*
X335225Y870329D01*
X334303Y872555D01*
X334303Y874965D01*
X335225Y877191D01*
X336975Y878940D01*
X337041Y878980D01*
X337045Y878985D01*
X337050Y878988D01*
X337125Y879078D01*
X337201Y879167D01*
X337203Y879172D01*
X337207Y879177D01*
X337249Y879286D01*
X337293Y879395D01*
X337294Y879402D01*
X337295Y879407D01*
X337296Y879425D01*
X337311Y879562D01*
X337311Y1142601D01*
X337297Y1142692D01*
X337289Y1142782D01*
X337277Y1142812D01*
X337272Y1142844D01*
X337229Y1142925D01*
X337193Y1143009D01*
X337167Y1143041D01*
X337156Y1143062D01*
X337133Y1143084D01*
X337088Y1143140D01*
X335437Y1144791D01*
X334553Y1146925D01*
X334553Y1149235D01*
X335437Y1151369D01*
X337071Y1153003D01*
X339205Y1153887D01*
X341515Y1153887D01*
X343649Y1153003D01*
X345283Y1151369D01*
X346167Y1149235D01*
X346167Y1146925D01*
X345283Y1144791D01*
X343632Y1143140D01*
X343579Y1143066D01*
X343519Y1142996D01*
X343507Y1142966D01*
X343488Y1142940D01*
X343461Y1142853D01*
X343427Y1142768D01*
X343423Y1142727D01*
X343416Y1142705D01*
X343417Y1142673D01*
X343409Y1142601D01*
X343409Y879562D01*
X343428Y879446D01*
X343445Y879330D01*
X343447Y879325D01*
X343448Y879319D01*
X343503Y879216D01*
X343556Y879111D01*
X343561Y879107D01*
X343564Y879101D01*
X343648Y879021D01*
X343732Y878939D01*
X343738Y878935D01*
X343742Y878932D01*
X343759Y878924D01*
X343764Y878921D01*
X345495Y877191D01*
X346417Y874965D01*
X346417Y872555D01*
X345495Y870329D01*
X343791Y868625D01*
X341565Y867703D01*
X339155Y867703D01*
G37*
%LPD*%
%LPC*%
G36*
X123255Y1228383D02*
X123255Y1228383D01*
X121029Y1229305D01*
X119325Y1231009D01*
X118403Y1233235D01*
X118403Y1235645D01*
X119325Y1237871D01*
X121029Y1239575D01*
X123255Y1240497D01*
X125171Y1240497D01*
X125262Y1240511D01*
X125352Y1240519D01*
X125382Y1240531D01*
X125414Y1240536D01*
X125495Y1240579D01*
X125579Y1240615D01*
X125611Y1240641D01*
X125632Y1240652D01*
X125654Y1240675D01*
X125710Y1240720D01*
X140767Y1255777D01*
X233436Y1255777D01*
X233526Y1255791D01*
X233617Y1255799D01*
X233647Y1255811D01*
X233679Y1255816D01*
X233759Y1255859D01*
X233843Y1255895D01*
X233875Y1255921D01*
X233896Y1255932D01*
X233918Y1255955D01*
X233974Y1256000D01*
X235329Y1257355D01*
X237555Y1258277D01*
X239965Y1258277D01*
X242191Y1257355D01*
X243895Y1255651D01*
X244817Y1253425D01*
X244817Y1251015D01*
X243895Y1248789D01*
X242191Y1247085D01*
X239965Y1246163D01*
X237555Y1246163D01*
X235329Y1247085D01*
X233974Y1248440D01*
X233900Y1248493D01*
X233831Y1248553D01*
X233801Y1248565D01*
X233774Y1248584D01*
X233687Y1248611D01*
X233603Y1248645D01*
X233562Y1248649D01*
X233539Y1248656D01*
X233507Y1248655D01*
X233436Y1248663D01*
X189132Y1248663D01*
X189036Y1248648D01*
X188939Y1248638D01*
X188915Y1248628D01*
X188890Y1248624D01*
X188804Y1248578D01*
X188714Y1248538D01*
X188695Y1248521D01*
X188672Y1248508D01*
X188605Y1248438D01*
X188533Y1248372D01*
X188521Y1248349D01*
X188503Y1248330D01*
X188462Y1248242D01*
X188415Y1248156D01*
X188410Y1248131D01*
X188399Y1248107D01*
X188388Y1248010D01*
X188371Y1247914D01*
X188375Y1247888D01*
X188372Y1247863D01*
X188393Y1247767D01*
X188407Y1247671D01*
X188419Y1247648D01*
X188424Y1247622D01*
X188474Y1247538D01*
X188519Y1247452D01*
X188537Y1247433D01*
X188551Y1247411D01*
X188625Y1247348D01*
X188694Y1247280D01*
X188723Y1247264D01*
X188737Y1247251D01*
X188768Y1247239D01*
X188841Y1247199D01*
X188851Y1247195D01*
X190555Y1245491D01*
X191477Y1243265D01*
X191477Y1240855D01*
X190555Y1238629D01*
X188851Y1236925D01*
X186625Y1236003D01*
X184215Y1236003D01*
X181989Y1236925D01*
X180634Y1238280D01*
X180560Y1238333D01*
X180491Y1238393D01*
X180461Y1238405D01*
X180434Y1238424D01*
X180347Y1238451D01*
X180263Y1238485D01*
X180222Y1238489D01*
X180199Y1238496D01*
X180167Y1238495D01*
X180096Y1238503D01*
X151649Y1238503D01*
X151558Y1238489D01*
X151468Y1238481D01*
X151438Y1238469D01*
X151406Y1238464D01*
X151325Y1238421D01*
X151241Y1238385D01*
X151209Y1238359D01*
X151188Y1238348D01*
X151166Y1238325D01*
X151110Y1238280D01*
X148520Y1235690D01*
X148467Y1235616D01*
X148407Y1235546D01*
X148395Y1235516D01*
X148376Y1235490D01*
X148349Y1235403D01*
X148315Y1235318D01*
X148311Y1235277D01*
X148304Y1235255D01*
X148305Y1235223D01*
X148297Y1235151D01*
X148297Y1233235D01*
X147375Y1231009D01*
X145671Y1229305D01*
X143445Y1228383D01*
X141035Y1228383D01*
X138809Y1229305D01*
X137105Y1231009D01*
X136183Y1233235D01*
X136183Y1235645D01*
X137105Y1237871D01*
X138809Y1239575D01*
X141035Y1240497D01*
X142951Y1240497D01*
X143042Y1240511D01*
X143132Y1240519D01*
X143162Y1240531D01*
X143194Y1240536D01*
X143275Y1240579D01*
X143359Y1240615D01*
X143391Y1240641D01*
X143412Y1240652D01*
X143434Y1240675D01*
X143490Y1240720D01*
X148387Y1245617D01*
X180096Y1245617D01*
X180186Y1245631D01*
X180277Y1245639D01*
X180307Y1245651D01*
X180339Y1245656D01*
X180419Y1245699D01*
X180503Y1245735D01*
X180535Y1245761D01*
X180556Y1245772D01*
X180578Y1245795D01*
X180634Y1245840D01*
X181989Y1247195D01*
X181999Y1247199D01*
X182082Y1247250D01*
X182168Y1247296D01*
X182186Y1247314D01*
X182208Y1247328D01*
X182270Y1247403D01*
X182337Y1247474D01*
X182348Y1247498D01*
X182365Y1247518D01*
X182400Y1247609D01*
X182441Y1247697D01*
X182444Y1247723D01*
X182453Y1247747D01*
X182457Y1247845D01*
X182468Y1247941D01*
X182462Y1247967D01*
X182463Y1247993D01*
X182436Y1248087D01*
X182416Y1248182D01*
X182402Y1248204D01*
X182395Y1248229D01*
X182339Y1248309D01*
X182289Y1248393D01*
X182270Y1248410D01*
X182255Y1248431D01*
X182177Y1248489D01*
X182103Y1248553D01*
X182078Y1248563D01*
X182057Y1248578D01*
X181965Y1248608D01*
X181874Y1248645D01*
X181842Y1248648D01*
X181824Y1248654D01*
X181791Y1248654D01*
X181708Y1248663D01*
X144029Y1248663D01*
X143938Y1248649D01*
X143848Y1248641D01*
X143818Y1248629D01*
X143786Y1248624D01*
X143705Y1248581D01*
X143621Y1248545D01*
X143589Y1248519D01*
X143568Y1248508D01*
X143546Y1248485D01*
X143490Y1248440D01*
X130740Y1235690D01*
X130687Y1235616D01*
X130627Y1235546D01*
X130615Y1235516D01*
X130596Y1235490D01*
X130569Y1235403D01*
X130535Y1235318D01*
X130531Y1235277D01*
X130524Y1235255D01*
X130525Y1235223D01*
X130517Y1235151D01*
X130517Y1233235D01*
X129595Y1231009D01*
X127891Y1229305D01*
X125665Y1228383D01*
X123255Y1228383D01*
G37*
%LPD*%
%LPC*%
G36*
X84801Y484677D02*
X84801Y484677D01*
X76858Y487967D01*
X70779Y494046D01*
X67489Y501989D01*
X67489Y510587D01*
X70779Y518530D01*
X76858Y524609D01*
X84801Y527899D01*
X93399Y527899D01*
X101342Y524609D01*
X107421Y518530D01*
X110711Y510587D01*
X110711Y501989D01*
X107421Y494046D01*
X101342Y487967D01*
X93399Y484677D01*
X84801Y484677D01*
G37*
%LPD*%
%LPC*%
G36*
X308301Y349777D02*
X308301Y349777D01*
X300358Y353067D01*
X294279Y359146D01*
X290989Y367089D01*
X290989Y375687D01*
X294279Y383630D01*
X300358Y389709D01*
X308301Y392999D01*
X316899Y392999D01*
X324842Y389709D01*
X330921Y383630D01*
X334211Y375687D01*
X334211Y367089D01*
X330921Y359146D01*
X324842Y353067D01*
X316899Y349777D01*
X308301Y349777D01*
G37*
%LPD*%
%LPC*%
G36*
X84801Y214977D02*
X84801Y214977D01*
X76858Y218267D01*
X70779Y224346D01*
X67489Y232289D01*
X67489Y240887D01*
X70779Y248830D01*
X76858Y254909D01*
X84801Y258199D01*
X93399Y258199D01*
X101342Y254909D01*
X107421Y248830D01*
X110711Y240887D01*
X110711Y232289D01*
X107421Y224346D01*
X101342Y218267D01*
X93399Y214977D01*
X84801Y214977D01*
G37*
%LPD*%
%LPC*%
G36*
X120516Y1051361D02*
X120516Y1051361D01*
X117923Y1052436D01*
X115938Y1054421D01*
X114863Y1057014D01*
X114863Y1059822D01*
X115938Y1062415D01*
X117124Y1063602D01*
X117177Y1063676D01*
X117237Y1063745D01*
X117249Y1063776D01*
X117268Y1063802D01*
X117295Y1063889D01*
X117329Y1063974D01*
X117333Y1064015D01*
X117340Y1064037D01*
X117339Y1064069D01*
X117347Y1064140D01*
X117347Y1132952D01*
X117333Y1133038D01*
X117327Y1133125D01*
X117313Y1133159D01*
X117308Y1133195D01*
X117267Y1133272D01*
X117234Y1133352D01*
X117205Y1133389D01*
X117192Y1133412D01*
X117170Y1133434D01*
X117130Y1133484D01*
X89627Y1161622D01*
X89550Y1161679D01*
X89478Y1161741D01*
X89452Y1161751D01*
X89429Y1161768D01*
X89338Y1161797D01*
X89250Y1161833D01*
X89215Y1161837D01*
X89195Y1161843D01*
X89162Y1161843D01*
X89083Y1161851D01*
X87496Y1161851D01*
X84903Y1162926D01*
X82918Y1164911D01*
X81843Y1167504D01*
X81843Y1170312D01*
X82918Y1172905D01*
X84903Y1174890D01*
X87496Y1175965D01*
X90304Y1175965D01*
X92897Y1174890D01*
X94882Y1172905D01*
X95957Y1170312D01*
X95957Y1168541D01*
X95971Y1168455D01*
X95977Y1168368D01*
X95991Y1168334D01*
X95996Y1168298D01*
X96037Y1168221D01*
X96070Y1168141D01*
X96099Y1168103D01*
X96112Y1168080D01*
X96134Y1168059D01*
X96174Y1168008D01*
X125168Y1138345D01*
X125171Y1138343D01*
X125174Y1138339D01*
X126514Y1136998D01*
X126493Y1135105D01*
X126493Y1135102D01*
X126493Y1135097D01*
X126493Y1064140D01*
X126507Y1064050D01*
X126515Y1063959D01*
X126527Y1063930D01*
X126532Y1063898D01*
X126575Y1063817D01*
X126611Y1063733D01*
X126637Y1063701D01*
X126648Y1063680D01*
X126671Y1063658D01*
X126716Y1063602D01*
X127902Y1062415D01*
X128977Y1059822D01*
X128977Y1057014D01*
X127902Y1054421D01*
X125917Y1052436D01*
X123324Y1051361D01*
X120516Y1051361D01*
G37*
%LPD*%
%LPC*%
G36*
X105122Y1227883D02*
X105122Y1227883D01*
X102712Y1228881D01*
X100867Y1230726D01*
X99869Y1233136D01*
X99869Y1235744D01*
X100867Y1238154D01*
X102712Y1239999D01*
X105122Y1240997D01*
X106919Y1240997D01*
X107009Y1241011D01*
X107100Y1241019D01*
X107130Y1241031D01*
X107162Y1241036D01*
X107242Y1241079D01*
X107326Y1241115D01*
X107358Y1241141D01*
X107379Y1241152D01*
X107401Y1241175D01*
X107457Y1241220D01*
X132682Y1266445D01*
X191041Y1266445D01*
X191131Y1266459D01*
X191222Y1266467D01*
X191252Y1266479D01*
X191284Y1266484D01*
X191364Y1266527D01*
X191448Y1266563D01*
X191480Y1266589D01*
X191501Y1266600D01*
X191523Y1266623D01*
X191579Y1266668D01*
X200273Y1275361D01*
X200326Y1275435D01*
X200385Y1275504D01*
X200397Y1275535D01*
X200416Y1275561D01*
X200443Y1275648D01*
X200477Y1275733D01*
X200482Y1275773D01*
X200488Y1275796D01*
X200488Y1275828D01*
X200496Y1275899D01*
X200496Y1278709D01*
X200481Y1278799D01*
X200474Y1278890D01*
X200461Y1278920D01*
X200456Y1278952D01*
X200413Y1279032D01*
X200377Y1279116D01*
X200352Y1279149D01*
X200341Y1279169D01*
X200317Y1279191D01*
X200273Y1279247D01*
X198147Y1281373D01*
X196996Y1284153D01*
X196996Y1287162D01*
X198147Y1289943D01*
X200275Y1292071D01*
X203056Y1293222D01*
X206065Y1293222D01*
X208845Y1292071D01*
X210973Y1289943D01*
X212125Y1287162D01*
X212125Y1284153D01*
X210973Y1281373D01*
X208848Y1279247D01*
X208795Y1279173D01*
X208735Y1279104D01*
X208723Y1279074D01*
X208704Y1279048D01*
X208678Y1278961D01*
X208643Y1278876D01*
X208639Y1278835D01*
X208632Y1278813D01*
X208633Y1278780D01*
X208625Y1278709D01*
X208625Y1272217D01*
X194724Y1258315D01*
X136365Y1258315D01*
X136275Y1258301D01*
X136184Y1258293D01*
X136154Y1258281D01*
X136122Y1258276D01*
X136042Y1258233D01*
X135958Y1258197D01*
X135926Y1258171D01*
X135905Y1258160D01*
X135883Y1258137D01*
X135827Y1258092D01*
X113206Y1235471D01*
X113153Y1235397D01*
X113093Y1235328D01*
X113081Y1235298D01*
X113062Y1235272D01*
X113035Y1235185D01*
X113001Y1235100D01*
X112997Y1235059D01*
X112990Y1235036D01*
X112991Y1235004D01*
X112983Y1234933D01*
X112983Y1233136D01*
X111985Y1230726D01*
X110140Y1228881D01*
X107730Y1227883D01*
X105122Y1227883D01*
G37*
%LPD*%
%LPC*%
G36*
X185095Y1296054D02*
X185095Y1296054D01*
X182315Y1297205D01*
X180189Y1299331D01*
X180115Y1299384D01*
X180046Y1299443D01*
X180016Y1299455D01*
X179990Y1299474D01*
X179903Y1299501D01*
X179818Y1299535D01*
X179777Y1299540D01*
X179754Y1299546D01*
X179722Y1299546D01*
X179651Y1299554D01*
X161384Y1299554D01*
X161330Y1299545D01*
X159390Y1299554D01*
X159388Y1299553D01*
X159386Y1299554D01*
X157704Y1299554D01*
X156516Y1300752D01*
X156515Y1300753D01*
X156514Y1300755D01*
X155182Y1302086D01*
X155179Y1302092D01*
X155156Y1302114D01*
X155113Y1302168D01*
X105622Y1352118D01*
X105547Y1352172D01*
X105477Y1352233D01*
X105448Y1352244D01*
X105423Y1352262D01*
X105335Y1352290D01*
X105248Y1352325D01*
X105210Y1352329D01*
X105189Y1352336D01*
X105156Y1352335D01*
X105082Y1352343D01*
X103344Y1352343D01*
X100934Y1353341D01*
X99089Y1355186D01*
X98091Y1357596D01*
X98091Y1360204D01*
X99089Y1362614D01*
X100934Y1364459D01*
X103344Y1365457D01*
X105952Y1365457D01*
X108362Y1364459D01*
X110207Y1362614D01*
X111205Y1360204D01*
X111205Y1358347D01*
X111219Y1358259D01*
X111226Y1358170D01*
X111239Y1358138D01*
X111244Y1358105D01*
X111271Y1358055D01*
X111272Y1358052D01*
X111286Y1358025D01*
X111321Y1357943D01*
X111348Y1357909D01*
X111360Y1357887D01*
X111383Y1357865D01*
X111388Y1357858D01*
X111397Y1357844D01*
X111406Y1357836D01*
X111425Y1357812D01*
X160870Y1307908D01*
X160945Y1307854D01*
X161016Y1307793D01*
X161044Y1307782D01*
X161069Y1307764D01*
X161157Y1307736D01*
X161244Y1307701D01*
X161282Y1307697D01*
X161304Y1307691D01*
X161336Y1307691D01*
X161410Y1307683D01*
X179651Y1307683D01*
X179741Y1307698D01*
X179832Y1307705D01*
X179862Y1307717D01*
X179894Y1307723D01*
X179974Y1307765D01*
X180058Y1307801D01*
X180090Y1307827D01*
X180111Y1307838D01*
X180133Y1307861D01*
X180189Y1307906D01*
X182315Y1310031D01*
X185095Y1311183D01*
X188104Y1311183D01*
X190885Y1310031D01*
X193013Y1307903D01*
X194164Y1305123D01*
X194164Y1302114D01*
X193013Y1299333D01*
X190885Y1297205D01*
X188104Y1296054D01*
X185095Y1296054D01*
G37*
%LPD*%
%LPC*%
G36*
X245175Y613703D02*
X245175Y613703D01*
X242949Y614625D01*
X241245Y616329D01*
X240323Y618555D01*
X240323Y621029D01*
X240342Y621104D01*
X240342Y621110D01*
X240343Y621116D01*
X240332Y621234D01*
X240323Y621349D01*
X240321Y621355D01*
X240320Y621361D01*
X240272Y621470D01*
X240227Y621576D01*
X240222Y621581D01*
X240220Y621586D01*
X240208Y621600D01*
X240122Y621707D01*
X167047Y694782D01*
X166952Y694850D01*
X166858Y694920D01*
X166852Y694922D01*
X166847Y694925D01*
X166735Y694960D01*
X166624Y694996D01*
X166618Y694996D01*
X166612Y694998D01*
X166495Y694995D01*
X166378Y694994D01*
X166371Y694992D01*
X166366Y694991D01*
X166349Y694985D01*
X166342Y694983D01*
X163895Y694983D01*
X161669Y695905D01*
X159965Y697609D01*
X159043Y699835D01*
X159043Y702245D01*
X159965Y704471D01*
X161669Y706175D01*
X163895Y707097D01*
X166305Y707097D01*
X168531Y706175D01*
X170235Y704471D01*
X171157Y702245D01*
X171157Y699771D01*
X171138Y699696D01*
X171138Y699690D01*
X171137Y699684D01*
X171148Y699566D01*
X171157Y699451D01*
X171159Y699445D01*
X171160Y699439D01*
X171208Y699330D01*
X171253Y699224D01*
X171258Y699219D01*
X171260Y699214D01*
X171272Y699200D01*
X171358Y699093D01*
X244433Y626018D01*
X244528Y625950D01*
X244622Y625880D01*
X244628Y625878D01*
X244633Y625875D01*
X244745Y625840D01*
X244856Y625804D01*
X244862Y625804D01*
X244868Y625802D01*
X244985Y625805D01*
X245102Y625806D01*
X245109Y625808D01*
X245114Y625809D01*
X245131Y625815D01*
X245138Y625817D01*
X247585Y625817D01*
X249811Y624895D01*
X251515Y623191D01*
X252437Y620965D01*
X252437Y618555D01*
X251515Y616329D01*
X249811Y614625D01*
X247585Y613703D01*
X245175Y613703D01*
G37*
%LPD*%
%LPC*%
G36*
X209615Y90463D02*
X209615Y90463D01*
X207389Y91385D01*
X205640Y93135D01*
X205600Y93201D01*
X205595Y93205D01*
X205592Y93210D01*
X205502Y93285D01*
X205413Y93361D01*
X205408Y93363D01*
X205403Y93367D01*
X205294Y93409D01*
X205185Y93453D01*
X205178Y93454D01*
X205173Y93455D01*
X205155Y93456D01*
X205018Y93471D01*
X114345Y93471D01*
X114255Y93457D01*
X114164Y93449D01*
X114134Y93437D01*
X114102Y93432D01*
X114022Y93389D01*
X113938Y93353D01*
X113905Y93327D01*
X113885Y93316D01*
X113863Y93293D01*
X113807Y93248D01*
X112368Y91809D01*
X110325Y90963D01*
X108115Y90963D01*
X106072Y91809D01*
X104509Y93372D01*
X103663Y95415D01*
X103663Y97625D01*
X104509Y99668D01*
X106072Y101231D01*
X108115Y102077D01*
X110325Y102077D01*
X112368Y101231D01*
X113807Y99792D01*
X113881Y99739D01*
X113950Y99679D01*
X113980Y99667D01*
X114006Y99648D01*
X114093Y99621D01*
X114178Y99587D01*
X114219Y99583D01*
X114242Y99576D01*
X114274Y99577D01*
X114345Y99569D01*
X205018Y99569D01*
X205134Y99588D01*
X205250Y99605D01*
X205255Y99607D01*
X205261Y99608D01*
X205364Y99663D01*
X205469Y99716D01*
X205473Y99721D01*
X205479Y99724D01*
X205558Y99808D01*
X205641Y99892D01*
X205645Y99898D01*
X205648Y99902D01*
X205656Y99919D01*
X205659Y99924D01*
X207389Y101655D01*
X209615Y102577D01*
X212025Y102577D01*
X214251Y101655D01*
X215955Y99951D01*
X216877Y97725D01*
X216877Y95315D01*
X215955Y93089D01*
X214251Y91385D01*
X212025Y90463D01*
X209615Y90463D01*
G37*
%LPD*%
%LPC*%
G36*
X303496Y1078023D02*
X303496Y1078023D01*
X301086Y1079021D01*
X299307Y1080800D01*
X299233Y1080853D01*
X299164Y1080913D01*
X299134Y1080925D01*
X299107Y1080944D01*
X299020Y1080971D01*
X298936Y1081005D01*
X298895Y1081009D01*
X298872Y1081016D01*
X298840Y1081015D01*
X298769Y1081023D01*
X255514Y1081023D01*
X255424Y1081009D01*
X255333Y1081001D01*
X255303Y1080989D01*
X255271Y1080984D01*
X255191Y1080941D01*
X255107Y1080905D01*
X255075Y1080879D01*
X255054Y1080868D01*
X255032Y1080845D01*
X254976Y1080800D01*
X253621Y1079445D01*
X251395Y1078523D01*
X248985Y1078523D01*
X246759Y1079445D01*
X245055Y1081149D01*
X244133Y1083375D01*
X244133Y1085785D01*
X245055Y1088011D01*
X246759Y1089715D01*
X248985Y1090637D01*
X251395Y1090637D01*
X253621Y1089715D01*
X254976Y1088360D01*
X255050Y1088307D01*
X255119Y1088247D01*
X255149Y1088235D01*
X255176Y1088216D01*
X255263Y1088189D01*
X255347Y1088155D01*
X255388Y1088151D01*
X255411Y1088144D01*
X255443Y1088145D01*
X255514Y1088137D01*
X298769Y1088137D01*
X298859Y1088151D01*
X298950Y1088159D01*
X298980Y1088171D01*
X299012Y1088176D01*
X299092Y1088219D01*
X299176Y1088255D01*
X299208Y1088281D01*
X299229Y1088292D01*
X299251Y1088315D01*
X299307Y1088360D01*
X301086Y1090139D01*
X303496Y1091137D01*
X306104Y1091137D01*
X308514Y1090139D01*
X310359Y1088294D01*
X311357Y1085884D01*
X311357Y1083276D01*
X310359Y1080866D01*
X308514Y1079021D01*
X306104Y1078023D01*
X303496Y1078023D01*
G37*
%LPD*%
%LPC*%
G36*
X20687Y1237995D02*
X20687Y1237995D01*
X16673Y1239658D01*
X13600Y1242731D01*
X12705Y1244891D01*
X12644Y1244991D01*
X12584Y1245091D01*
X12579Y1245095D01*
X12576Y1245100D01*
X12486Y1245175D01*
X12397Y1245251D01*
X12391Y1245253D01*
X12386Y1245257D01*
X12278Y1245299D01*
X12169Y1245343D01*
X12161Y1245344D01*
X12157Y1245345D01*
X12138Y1245346D01*
X12002Y1245361D01*
X4308Y1245361D01*
X4218Y1245347D01*
X4127Y1245339D01*
X4097Y1245327D01*
X4065Y1245322D01*
X3985Y1245279D01*
X3901Y1245243D01*
X3869Y1245217D01*
X3848Y1245206D01*
X3826Y1245183D01*
X3770Y1245138D01*
X2415Y1243783D01*
X189Y1242861D01*
X-2221Y1242861D01*
X-4447Y1243783D01*
X-6151Y1245487D01*
X-7073Y1247713D01*
X-7073Y1250123D01*
X-6151Y1252349D01*
X-4447Y1254053D01*
X-2221Y1254975D01*
X189Y1254975D01*
X2415Y1254053D01*
X3770Y1252698D01*
X3844Y1252645D01*
X3913Y1252585D01*
X3943Y1252573D01*
X3970Y1252554D01*
X4057Y1252527D01*
X4141Y1252493D01*
X4182Y1252489D01*
X4205Y1252482D01*
X4237Y1252483D01*
X4308Y1252475D01*
X12002Y1252475D01*
X12117Y1252494D01*
X12233Y1252511D01*
X12238Y1252513D01*
X12245Y1252514D01*
X12347Y1252569D01*
X12452Y1252622D01*
X12457Y1252627D01*
X12462Y1252630D01*
X12542Y1252714D01*
X12624Y1252798D01*
X12628Y1252804D01*
X12631Y1252808D01*
X12639Y1252825D01*
X12705Y1252945D01*
X13600Y1255105D01*
X16673Y1258178D01*
X20687Y1259841D01*
X25033Y1259841D01*
X29047Y1258178D01*
X32120Y1255105D01*
X33783Y1251091D01*
X33783Y1246745D01*
X32120Y1242731D01*
X29047Y1239658D01*
X25033Y1237995D01*
X20687Y1237995D01*
G37*
%LPD*%
%LPC*%
G36*
X185095Y1278093D02*
X185095Y1278093D01*
X182315Y1279245D01*
X180189Y1281370D01*
X180115Y1281423D01*
X180046Y1281483D01*
X180016Y1281495D01*
X179990Y1281514D01*
X179903Y1281540D01*
X179818Y1281575D01*
X179777Y1281579D01*
X179754Y1281586D01*
X179722Y1281585D01*
X179651Y1281593D01*
X163003Y1281593D01*
X162913Y1281578D01*
X162822Y1281571D01*
X162792Y1281559D01*
X162760Y1281553D01*
X162680Y1281511D01*
X162596Y1281475D01*
X162564Y1281449D01*
X162543Y1281438D01*
X162521Y1281415D01*
X162465Y1281370D01*
X161194Y1280099D01*
X158784Y1279101D01*
X156176Y1279101D01*
X153766Y1280099D01*
X151921Y1281944D01*
X150923Y1284354D01*
X150923Y1286962D01*
X151921Y1289372D01*
X153766Y1291216D01*
X156176Y1292214D01*
X158784Y1292214D01*
X161194Y1291216D01*
X162465Y1289945D01*
X162539Y1289892D01*
X162608Y1289833D01*
X162638Y1289821D01*
X162665Y1289802D01*
X162752Y1289775D01*
X162836Y1289741D01*
X162877Y1289736D01*
X162900Y1289730D01*
X162932Y1289730D01*
X163003Y1289722D01*
X179651Y1289722D01*
X179741Y1289737D01*
X179832Y1289744D01*
X179862Y1289757D01*
X179894Y1289762D01*
X179974Y1289805D01*
X180058Y1289841D01*
X180090Y1289866D01*
X180111Y1289877D01*
X180133Y1289901D01*
X180189Y1289945D01*
X182315Y1292071D01*
X185095Y1293222D01*
X188104Y1293222D01*
X190885Y1292071D01*
X193013Y1289943D01*
X194164Y1287162D01*
X194164Y1284153D01*
X193013Y1281373D01*
X190885Y1279245D01*
X188104Y1278093D01*
X185095Y1278093D01*
G37*
%LPD*%
%LPC*%
G36*
X-11265Y1054131D02*
X-11265Y1054131D01*
X-13308Y1054977D01*
X-14871Y1056540D01*
X-15717Y1058583D01*
X-15717Y1060793D01*
X-14871Y1062836D01*
X-13308Y1064399D01*
X-11265Y1065245D01*
X-9055Y1065245D01*
X-7012Y1064399D01*
X-5573Y1062960D01*
X-5499Y1062907D01*
X-5430Y1062847D01*
X-5400Y1062835D01*
X-5374Y1062816D01*
X-5287Y1062789D01*
X-5202Y1062755D01*
X-5161Y1062751D01*
X-5138Y1062744D01*
X-5106Y1062745D01*
X-5035Y1062737D01*
X35515Y1062737D01*
X35605Y1062751D01*
X35696Y1062759D01*
X35726Y1062771D01*
X35758Y1062776D01*
X35838Y1062819D01*
X35922Y1062855D01*
X35954Y1062881D01*
X35975Y1062892D01*
X35997Y1062915D01*
X36053Y1062960D01*
X37492Y1064399D01*
X39535Y1065245D01*
X41745Y1065245D01*
X43788Y1064399D01*
X45351Y1062836D01*
X46197Y1060793D01*
X46197Y1058583D01*
X45351Y1056540D01*
X43788Y1054977D01*
X41745Y1054131D01*
X39535Y1054131D01*
X37492Y1054977D01*
X36053Y1056416D01*
X35979Y1056469D01*
X35910Y1056529D01*
X35880Y1056541D01*
X35854Y1056560D01*
X35767Y1056587D01*
X35682Y1056621D01*
X35641Y1056625D01*
X35618Y1056632D01*
X35586Y1056631D01*
X35515Y1056639D01*
X-5035Y1056639D01*
X-5125Y1056625D01*
X-5216Y1056617D01*
X-5246Y1056605D01*
X-5278Y1056600D01*
X-5358Y1056557D01*
X-5442Y1056521D01*
X-5474Y1056495D01*
X-5495Y1056484D01*
X-5517Y1056461D01*
X-5573Y1056416D01*
X-7012Y1054977D01*
X-9055Y1054131D01*
X-11265Y1054131D01*
G37*
%LPD*%
%LPC*%
G36*
X268437Y666641D02*
X268437Y666641D01*
X266211Y667563D01*
X264507Y669267D01*
X263585Y671493D01*
X263585Y673903D01*
X264507Y676129D01*
X266211Y677833D01*
X268437Y678755D01*
X270847Y678755D01*
X273073Y677833D01*
X274534Y676372D01*
X274608Y676319D01*
X274677Y676259D01*
X274707Y676247D01*
X274734Y676228D01*
X274821Y676201D01*
X274905Y676167D01*
X274946Y676163D01*
X274969Y676156D01*
X275001Y676157D01*
X275072Y676149D01*
X304078Y676149D01*
X304194Y676168D01*
X304310Y676185D01*
X304315Y676187D01*
X304321Y676188D01*
X304424Y676243D01*
X304529Y676296D01*
X304533Y676301D01*
X304539Y676304D01*
X304619Y676388D01*
X304701Y676472D01*
X304705Y676478D01*
X304708Y676482D01*
X304716Y676499D01*
X304719Y676504D01*
X306449Y678235D01*
X308675Y679157D01*
X311085Y679157D01*
X313311Y678235D01*
X315015Y676531D01*
X315937Y674305D01*
X315937Y671895D01*
X315015Y669669D01*
X313311Y667965D01*
X311085Y667043D01*
X308675Y667043D01*
X306449Y667965D01*
X304700Y669715D01*
X304660Y669781D01*
X304655Y669785D01*
X304652Y669790D01*
X304562Y669865D01*
X304473Y669941D01*
X304468Y669943D01*
X304463Y669947D01*
X304354Y669989D01*
X304245Y670033D01*
X304238Y670034D01*
X304233Y670035D01*
X304215Y670036D01*
X304078Y670051D01*
X275610Y670051D01*
X275495Y670032D01*
X275379Y670015D01*
X275374Y670013D01*
X275367Y670012D01*
X275265Y669957D01*
X275160Y669904D01*
X275155Y669899D01*
X275150Y669896D01*
X275070Y669812D01*
X274988Y669728D01*
X274984Y669722D01*
X274981Y669718D01*
X274973Y669701D01*
X274907Y669581D01*
X274777Y669267D01*
X273073Y667563D01*
X270847Y666641D01*
X268437Y666641D01*
G37*
%LPD*%
%LPC*%
G36*
X371715Y1449323D02*
X371715Y1449323D01*
X367701Y1450986D01*
X364628Y1454059D01*
X362965Y1458073D01*
X362965Y1462419D01*
X364628Y1466433D01*
X367701Y1469506D01*
X371715Y1471169D01*
X376061Y1471169D01*
X380075Y1469506D01*
X383148Y1466433D01*
X384811Y1462419D01*
X384811Y1458073D01*
X383148Y1454059D01*
X380075Y1450986D01*
X376061Y1449323D01*
X371715Y1449323D01*
G37*
%LPD*%
%LPC*%
G36*
X371715Y1423923D02*
X371715Y1423923D01*
X367701Y1425586D01*
X364628Y1428659D01*
X362965Y1432673D01*
X362965Y1437019D01*
X364628Y1441033D01*
X367701Y1444106D01*
X371715Y1445769D01*
X376061Y1445769D01*
X380075Y1444106D01*
X383148Y1441033D01*
X384811Y1437019D01*
X384811Y1432673D01*
X383148Y1428659D01*
X380075Y1425586D01*
X376061Y1423923D01*
X371715Y1423923D01*
G37*
%LPD*%
%LPC*%
G36*
X371715Y1373123D02*
X371715Y1373123D01*
X367701Y1374786D01*
X364628Y1377859D01*
X362965Y1381873D01*
X362965Y1386219D01*
X364628Y1390233D01*
X367701Y1393306D01*
X371715Y1394969D01*
X376061Y1394969D01*
X380075Y1393306D01*
X383148Y1390233D01*
X384811Y1386219D01*
X384811Y1381873D01*
X383148Y1377859D01*
X380075Y1374786D01*
X376061Y1373123D01*
X371715Y1373123D01*
G37*
%LPD*%
%LPC*%
G36*
X371715Y1347723D02*
X371715Y1347723D01*
X367701Y1349386D01*
X364628Y1352459D01*
X362965Y1356473D01*
X362965Y1360819D01*
X364628Y1364833D01*
X367701Y1367906D01*
X371715Y1369569D01*
X376061Y1369569D01*
X380075Y1367906D01*
X383148Y1364833D01*
X384811Y1360819D01*
X384811Y1356473D01*
X383148Y1352459D01*
X380075Y1349386D01*
X376061Y1347723D01*
X371715Y1347723D01*
G37*
%LPD*%
%LPC*%
G36*
X20687Y1263395D02*
X20687Y1263395D01*
X16673Y1265058D01*
X13600Y1268131D01*
X11937Y1272145D01*
X11937Y1276491D01*
X13600Y1280505D01*
X16673Y1283578D01*
X20687Y1285241D01*
X25033Y1285241D01*
X29047Y1283578D01*
X32120Y1280505D01*
X33783Y1276491D01*
X33783Y1272145D01*
X32120Y1268131D01*
X29047Y1265058D01*
X25033Y1263395D01*
X20687Y1263395D01*
G37*
%LPD*%
%LPC*%
G36*
X20687Y1212595D02*
X20687Y1212595D01*
X16673Y1214258D01*
X13600Y1217331D01*
X11937Y1221345D01*
X11937Y1225691D01*
X13600Y1229705D01*
X16673Y1232778D01*
X20687Y1234441D01*
X25033Y1234441D01*
X29047Y1232778D01*
X32120Y1229705D01*
X33783Y1225691D01*
X33783Y1221345D01*
X32120Y1217331D01*
X29047Y1214258D01*
X25033Y1212595D01*
X20687Y1212595D01*
G37*
%LPD*%
%LPC*%
G36*
X84949Y1111757D02*
X84949Y1111757D01*
X80935Y1113420D01*
X77862Y1116493D01*
X76199Y1120507D01*
X76199Y1124853D01*
X77862Y1128867D01*
X80935Y1131940D01*
X84949Y1133603D01*
X89295Y1133603D01*
X93309Y1131940D01*
X96382Y1128867D01*
X98045Y1124853D01*
X98045Y1120507D01*
X96382Y1116493D01*
X93309Y1113420D01*
X89295Y1111757D01*
X84949Y1111757D01*
G37*
%LPD*%
%LPC*%
G36*
X59549Y1111757D02*
X59549Y1111757D01*
X55535Y1113420D01*
X52462Y1116493D01*
X50799Y1120507D01*
X50799Y1124853D01*
X52462Y1128867D01*
X55535Y1131940D01*
X59549Y1133603D01*
X63895Y1133603D01*
X67909Y1131940D01*
X70982Y1128867D01*
X72645Y1124853D01*
X72645Y1120507D01*
X70982Y1116493D01*
X67909Y1113420D01*
X63895Y1111757D01*
X59549Y1111757D01*
G37*
%LPD*%
%LPC*%
G36*
X34149Y1111757D02*
X34149Y1111757D01*
X30135Y1113420D01*
X27062Y1116493D01*
X25399Y1120507D01*
X25399Y1124853D01*
X27062Y1128867D01*
X30135Y1131940D01*
X34149Y1133603D01*
X38495Y1133603D01*
X42509Y1131940D01*
X45582Y1128867D01*
X47245Y1124853D01*
X47245Y1120507D01*
X45582Y1116493D01*
X42509Y1113420D01*
X38495Y1111757D01*
X34149Y1111757D01*
G37*
%LPD*%
%LPC*%
G36*
X84949Y1086357D02*
X84949Y1086357D01*
X80935Y1088020D01*
X77862Y1091093D01*
X76199Y1095107D01*
X76199Y1099453D01*
X77862Y1103467D01*
X80935Y1106540D01*
X84949Y1108203D01*
X89295Y1108203D01*
X93309Y1106540D01*
X96382Y1103467D01*
X98045Y1099453D01*
X98045Y1095107D01*
X96382Y1091093D01*
X93309Y1088020D01*
X89295Y1086357D01*
X84949Y1086357D01*
G37*
%LPD*%
%LPC*%
G36*
X59549Y1086357D02*
X59549Y1086357D01*
X55535Y1088020D01*
X52462Y1091093D01*
X50799Y1095107D01*
X50799Y1099453D01*
X52462Y1103467D01*
X55535Y1106540D01*
X59549Y1108203D01*
X63895Y1108203D01*
X67909Y1106540D01*
X70982Y1103467D01*
X72645Y1099453D01*
X72645Y1095107D01*
X70982Y1091093D01*
X67909Y1088020D01*
X63895Y1086357D01*
X59549Y1086357D01*
G37*
%LPD*%
%LPC*%
G36*
X331823Y62674D02*
X331823Y62674D01*
X328252Y64153D01*
X325519Y66886D01*
X324040Y70457D01*
X324040Y74323D01*
X325519Y77894D01*
X328252Y80627D01*
X331823Y82106D01*
X335689Y82106D01*
X339260Y80627D01*
X341993Y77894D01*
X343472Y74323D01*
X343472Y70457D01*
X341993Y66886D01*
X339260Y64153D01*
X335689Y62674D01*
X331823Y62674D01*
G37*
%LPD*%
%LPC*%
G36*
X191869Y62674D02*
X191869Y62674D01*
X188298Y64153D01*
X185565Y66886D01*
X184086Y70457D01*
X184086Y74323D01*
X185565Y77894D01*
X188298Y80627D01*
X191869Y82106D01*
X195735Y82106D01*
X199306Y80627D01*
X202039Y77894D01*
X203518Y74323D01*
X203518Y70457D01*
X202039Y66886D01*
X199306Y64153D01*
X195735Y62674D01*
X191869Y62674D01*
G37*
%LPD*%
%LPC*%
G36*
X291691Y37782D02*
X291691Y37782D01*
X288120Y39261D01*
X285387Y41994D01*
X283908Y45565D01*
X283908Y49431D01*
X285387Y53002D01*
X288120Y55735D01*
X291691Y57214D01*
X295557Y57214D01*
X299128Y55735D01*
X301861Y53002D01*
X303340Y49431D01*
X303340Y45565D01*
X301861Y41994D01*
X299128Y39261D01*
X295557Y37782D01*
X291691Y37782D01*
G37*
%LPD*%
%LPC*%
G36*
X261719Y37782D02*
X261719Y37782D01*
X258148Y39261D01*
X255415Y41994D01*
X253936Y45565D01*
X253936Y49431D01*
X255415Y53002D01*
X258148Y55735D01*
X261719Y57214D01*
X265585Y57214D01*
X269156Y55735D01*
X271889Y53002D01*
X273368Y49431D01*
X273368Y45565D01*
X271889Y41994D01*
X269156Y39261D01*
X265585Y37782D01*
X261719Y37782D01*
G37*
%LPD*%
%LPC*%
G36*
X231747Y37782D02*
X231747Y37782D01*
X228176Y39261D01*
X225443Y41994D01*
X223964Y45565D01*
X223964Y49431D01*
X225443Y53002D01*
X228176Y55735D01*
X231747Y57214D01*
X235613Y57214D01*
X239184Y55735D01*
X241917Y53002D01*
X243396Y49431D01*
X243396Y45565D01*
X241917Y41994D01*
X239184Y39261D01*
X235613Y37782D01*
X231747Y37782D01*
G37*
%LPD*%
%LPC*%
G36*
X331823Y12890D02*
X331823Y12890D01*
X328252Y14369D01*
X325519Y17102D01*
X324040Y20673D01*
X324040Y24539D01*
X325519Y28110D01*
X328252Y30843D01*
X331823Y32322D01*
X335689Y32322D01*
X339260Y30843D01*
X341993Y28110D01*
X343472Y24539D01*
X343472Y20673D01*
X341993Y17102D01*
X339260Y14369D01*
X335689Y12890D01*
X331823Y12890D01*
G37*
%LPD*%
%LPC*%
G36*
X191869Y12890D02*
X191869Y12890D01*
X188298Y14369D01*
X185565Y17102D01*
X184086Y20673D01*
X184086Y24539D01*
X185565Y28110D01*
X188298Y30843D01*
X191869Y32322D01*
X195735Y32322D01*
X199306Y30843D01*
X202039Y28110D01*
X203518Y24539D01*
X203518Y20673D01*
X202039Y17102D01*
X199306Y14369D01*
X195735Y12890D01*
X191869Y12890D01*
G37*
%LPD*%
%LPC*%
G36*
X261681Y111443D02*
X261681Y111443D01*
X258320Y112835D01*
X255747Y115408D01*
X254355Y118769D01*
X254355Y122407D01*
X255747Y125768D01*
X258320Y128341D01*
X261681Y129733D01*
X265319Y129733D01*
X268680Y128341D01*
X271253Y125768D01*
X272645Y122407D01*
X272645Y118769D01*
X271253Y115408D01*
X268680Y112835D01*
X265319Y111443D01*
X261681Y111443D01*
G37*
%LPD*%
D10*
X136500Y120588D03*
X263500Y120588D03*
D11*
X22860Y1198118D03*
X22860Y1223518D03*
X22860Y1248918D03*
X22860Y1274318D03*
X87122Y1122680D03*
X87122Y1097280D03*
X61722Y1122680D03*
X61722Y1097280D03*
X36322Y1122680D03*
X36322Y1097280D03*
X373888Y1460246D03*
X373888Y1434846D03*
X373888Y1409446D03*
X373888Y1384046D03*
X373888Y1358646D03*
X373888Y1333246D03*
D12*
X78340Y728218D03*
X78340Y720218D03*
X78340Y744218D03*
X78340Y736218D03*
D13*
X23340Y773218D03*
X23340Y683218D03*
X78340Y773218D03*
X78340Y683218D03*
D12*
X78340Y712218D03*
D14*
X204560Y1303618D03*
D15*
X186600Y1303618D03*
X186600Y1285658D03*
X204560Y1285658D03*
D16*
X263652Y47498D03*
X193802Y22606D03*
X193802Y72390D03*
X333756Y22606D03*
X333756Y72390D03*
X233680Y47498D03*
X293624Y47498D03*
D17*
X78340Y683218D02*
X23340Y683218D01*
X23340Y773218D02*
X78340Y773218D01*
D18*
X289560Y1017778D03*
X338700Y1185418D03*
X289560Y207518D03*
X332740Y263398D03*
X291592Y116078D03*
X35560Y77270D03*
X124460Y1177544D03*
X300482Y1219318D03*
X88900Y1229360D03*
X151960Y738124D03*
X269642Y717698D03*
X269642Y757682D03*
X205740Y619760D03*
X174498Y454152D03*
D19*
X233680Y350520D03*
D18*
X198120Y1064260D03*
X66040Y1442192D03*
X138820Y1122680D03*
X155820Y1026160D03*
X142240Y1168908D03*
X304800Y1097398D03*
X81026Y923544D03*
X214630Y915670D03*
D20*
X38100Y1331078D03*
X121920Y1358900D03*
D18*
X361696Y930148D03*
X363220Y1148080D03*
X263262Y566420D03*
X246380Y635000D03*
X200660Y528320D03*
D21*
X157870Y929640D03*
D18*
X382134Y1219200D03*
X251460Y1244600D03*
X323850Y1372870D03*
X304800Y1443990D03*
D21*
X149860Y566420D03*
D20*
X279400Y1219318D03*
D22*
X279400Y1183640D02*
X218440Y1122680D01*
X279400Y1183640D02*
X279400Y1219318D01*
D20*
X198120Y1048512D03*
D22*
X218440Y1068832D01*
X218440Y1122680D01*
D18*
X250190Y1084580D03*
D23*
X304800Y1084580D01*
D20*
X304800Y1084580D03*
D22*
X186600Y1303618D02*
X159398Y1303618D01*
X104648Y1358876D01*
X104648Y1358900D01*
D20*
X104648Y1358900D03*
X243840Y1176020D03*
D22*
X256540Y1176020D01*
X269240Y1188720D01*
X269240Y1224280D01*
X292608Y1247648D01*
X321564Y1247648D01*
D20*
X321564Y1247648D03*
D19*
X121920Y1058418D03*
D24*
X121920Y1135126D01*
X88900Y1168908D01*
D19*
X88900Y1168908D03*
D18*
X227520Y984250D03*
D25*
X227584Y1002538D01*
X211582Y1018540D01*
D26*
X40640Y1059688D03*
D25*
X-10160Y1059688D01*
D26*
X-10160Y1059688D03*
D21*
X78740Y972820D03*
X78740Y1018540D03*
D25*
X211582Y1018540D01*
X216171Y972820D02*
X78740Y972820D01*
X227508Y984250D02*
X227520Y984250D01*
X227508Y984250D02*
X216171Y972820D01*
D21*
X78740Y995680D03*
D18*
X198120Y995680D03*
D25*
X78740Y995680D01*
D23*
X22860Y1248918D02*
X-1016Y1248918D01*
D18*
X-1016Y1248918D03*
D21*
X78740Y984250D03*
X213360Y984250D03*
D25*
X78740Y984250D01*
D20*
X106426Y1234440D03*
D22*
X204560Y1273900D02*
X204560Y1285658D01*
X204560Y1273900D02*
X193040Y1262380D01*
X134366Y1262380D01*
X106426Y1234440D01*
D18*
X238760Y1252220D03*
X124460Y1234440D03*
D23*
X142240Y1252220D02*
X238760Y1252220D01*
X142240Y1252220D02*
X124460Y1234440D01*
D20*
X157480Y1285658D03*
D22*
X186600Y1285658D01*
X290020Y1224740D02*
X302260Y1236980D01*
X228600Y1117600D02*
X228600Y1063752D01*
X228600Y1117600D02*
X290020Y1179020D01*
X290020Y1224740D01*
X327660Y1236980D02*
X336550Y1245870D01*
X336550Y1286510D01*
X327660Y1236980D02*
X302260Y1236980D01*
D20*
X336550Y1286510D03*
X213360Y1048512D03*
D22*
X228600Y1063752D01*
D21*
X320040Y1126744D03*
D18*
X320040Y909320D03*
D25*
X320040Y1126744D01*
D21*
X214630Y929640D03*
X174870Y929640D03*
D25*
X214630Y929640D01*
D21*
X101164Y923544D03*
D25*
X116586Y939038D01*
X254000Y939038D01*
D21*
X254000Y939038D03*
D25*
X117982Y720218D02*
X78340Y720218D01*
X117982Y720218D02*
X218440Y619760D01*
D18*
X218440Y619760D03*
D25*
X122682Y728218D02*
X78340Y728218D01*
X122682Y728218D02*
X231140Y619760D01*
D18*
X231140Y619760D03*
D25*
X110742Y712218D02*
X78340Y712218D01*
X110742Y712218D02*
X121920Y701040D01*
D18*
X121920Y701040D03*
X246380Y619760D03*
D25*
X165100Y701040D01*
D18*
X165100Y701040D03*
X297180Y1386840D03*
D25*
X335280Y1310640D02*
X405130Y1310640D01*
X335280Y1310640D02*
X297180Y1348740D01*
X297180Y1386840D01*
D18*
X405130Y1310640D03*
D21*
X396240Y1318514D03*
D25*
X338074Y1318514D01*
X304800Y1351788D01*
D21*
X304800Y1415542D03*
D25*
X304800Y1351788D01*
D21*
X137160Y1007110D03*
D25*
X121920Y802640D02*
X166878Y757682D01*
D18*
X166878Y757682D03*
D21*
X78740Y1007110D03*
D25*
X137160Y1007110D01*
X121920Y914400D02*
X121920Y802640D01*
X121920Y914400D02*
X137160Y929640D01*
D21*
X137160Y929640D03*
D26*
X109220Y96520D03*
D21*
X340360Y1148080D03*
D25*
X340360Y873760D01*
D18*
X340360Y873760D03*
X340360Y459740D03*
D25*
X309880Y459740D01*
X210820Y96520D02*
X109220Y96520D01*
X246380Y396240D02*
X309880Y459740D01*
X246380Y396240D02*
X246380Y121158D01*
D18*
X210820Y96520D03*
X246380Y121158D03*
X309880Y447040D03*
D25*
X256286Y393510D02*
X256286Y167386D01*
X309816Y447040D02*
X309880Y447040D01*
X309816Y447040D02*
X256286Y393510D01*
D18*
X309880Y673100D03*
D25*
X270044Y673100D01*
X269642Y672698D01*
D18*
X269642Y672698D03*
D21*
X256286Y167386D03*
D26*
X256286Y137160D03*
D21*
X329184Y1138936D03*
D25*
X329438Y1138682D01*
X329438Y891540D01*
D18*
X329438Y891540D03*
X302260Y415310D03*
D25*
X264160Y162560D02*
X256286Y154940D01*
X256286Y137160D01*
X264160Y377210D02*
X302260Y415310D01*
X264160Y377210D02*
X264160Y162560D01*
D18*
X142240Y1234440D03*
X185420Y1242060D03*
D23*
X149860Y1242060D01*
X142240Y1234440D01*
D21*
X78740Y961390D03*
X227520Y961390D03*
D25*
X78740Y961390D01*
D21*
X78740Y949960D03*
X254000Y949960D03*
D25*
X78740Y949960D01*
M02*
