G04 EAGLE Gerber RS-274X export*
G75*
%MOMM*%
%FSLAX34Y34*%
%LPD*%
%INSoldermask Bottom*%
%IPPOS*%
%AMOC8*
5,1,8,0,0,1.08239X$1,22.5*%
G01*
%ADD10C,1.727200*%
%ADD11C,2.493200*%
%ADD12C,2.082800*%
%ADD13R,2.703200X0.703200*%
%ADD14R,2.703200X2.203200*%
%ADD15C,1.103200*%
%ADD16R,1.411200X1.411200*%
%ADD17C,1.411200*%
%ADD18C,1.841500*%
%ADD19C,1.109600*%
%ADD20C,1.309600*%
%ADD21C,1.209600*%
%ADD22C,1.059600*%
%ADD23C,1.009600*%


D10*
X136500Y120588D03*
X263500Y120588D03*
D11*
X312600Y371388D03*
X89100Y506288D03*
X89100Y236588D03*
D12*
X22860Y1198118D03*
X22860Y1223518D03*
X22860Y1248918D03*
X22860Y1274318D03*
X87122Y1122680D03*
X87122Y1097280D03*
X61722Y1122680D03*
X61722Y1097280D03*
X36322Y1122680D03*
X36322Y1097280D03*
X373888Y1460246D03*
X373888Y1434846D03*
X373888Y1409446D03*
X373888Y1384046D03*
X373888Y1358646D03*
X373888Y1333246D03*
D13*
X78340Y728218D03*
X78340Y720218D03*
X78340Y744218D03*
X78340Y736218D03*
D14*
X23340Y773218D03*
X23340Y683218D03*
X78340Y773218D03*
X78340Y683218D03*
D13*
X78340Y712218D03*
D15*
X53340Y706218D03*
X53340Y750218D03*
D16*
X204560Y1303618D03*
D17*
X186600Y1303618D03*
X186600Y1285658D03*
X204560Y1285658D03*
D18*
X263652Y47498D03*
X193802Y22606D03*
X193802Y72390D03*
X333756Y22606D03*
X333756Y72390D03*
X233680Y47498D03*
X293624Y47498D03*
D19*
X289560Y1017778D03*
X338700Y1185418D03*
X289560Y207518D03*
X332740Y263398D03*
X291592Y116078D03*
X35560Y77270D03*
X124460Y1177544D03*
X300482Y1219318D03*
X88900Y1229360D03*
X151960Y738124D03*
X269642Y717698D03*
X269642Y757682D03*
X205740Y619760D03*
X174498Y454152D03*
D20*
X233680Y350520D03*
D19*
X198120Y1064260D03*
X66040Y1442192D03*
X138820Y1122680D03*
X155820Y1026160D03*
X142240Y1168908D03*
X304800Y1097398D03*
X81026Y923544D03*
X214630Y915670D03*
D21*
X38100Y1331078D03*
X121920Y1358900D03*
D19*
X361696Y930148D03*
X363220Y1148080D03*
X263262Y566420D03*
X246380Y635000D03*
X200660Y528320D03*
D22*
X157870Y929640D03*
D19*
X382134Y1219200D03*
X251460Y1244600D03*
X323850Y1372870D03*
X304800Y1443990D03*
D22*
X149860Y566420D03*
D21*
X279400Y1219318D03*
X198120Y1048512D03*
D19*
X250190Y1084580D03*
D21*
X304800Y1084580D03*
X104648Y1358900D03*
X243840Y1176020D03*
X321564Y1247648D03*
D20*
X121920Y1058418D03*
X88900Y1168908D03*
D19*
X227520Y984250D03*
D23*
X40640Y1059688D03*
X-10160Y1059688D03*
D22*
X78740Y972820D03*
X78740Y1018540D03*
X78740Y995680D03*
D19*
X198120Y995680D03*
X-1016Y1248918D03*
D22*
X78740Y984250D03*
X213360Y984250D03*
D21*
X106426Y1234440D03*
D19*
X238760Y1252220D03*
X124460Y1234440D03*
D21*
X157480Y1285658D03*
X336550Y1286510D03*
X213360Y1048512D03*
D22*
X320040Y1126744D03*
D19*
X320040Y909320D03*
D22*
X214630Y929640D03*
X174870Y929640D03*
X101164Y923544D03*
X254000Y939038D03*
D19*
X218440Y619760D03*
X231140Y619760D03*
X121920Y701040D03*
X246380Y619760D03*
X165100Y701040D03*
X297180Y1386840D03*
X405130Y1310640D03*
D22*
X396240Y1318514D03*
X304800Y1415542D03*
X137160Y1007110D03*
D19*
X166878Y757682D03*
D22*
X78740Y1007110D03*
X137160Y929640D03*
D23*
X109220Y96520D03*
D22*
X340360Y1148080D03*
D19*
X340360Y873760D03*
X340360Y459740D03*
X210820Y96520D03*
X246380Y121158D03*
X309880Y447040D03*
X309880Y673100D03*
X269642Y672698D03*
D22*
X256286Y167386D03*
D23*
X256286Y137160D03*
D22*
X329184Y1138936D03*
D19*
X329438Y891540D03*
X302260Y415310D03*
X142240Y1234440D03*
X185420Y1242060D03*
D22*
X78740Y961390D03*
X227520Y961390D03*
X78740Y949960D03*
X254000Y949960D03*
M02*
